<svg width="24" height="25" viewBox="0 0 24 25" fill="none" xmlns="http://www.w3.org/2000/svg">
<path d="M2.02562 10.4671C1.93112 10.3393 1.86295 10.194 1.82508 10.0396C1.78721 9.88524 1.78039 9.72487 1.80501 9.56784C1.82963 9.4108 1.88521 9.26022 1.96851 9.12484C2.05181 8.98946 2.16118 8.87198 2.29026 8.77922C2.41935 8.68646 2.56557 8.62027 2.72045 8.5845C2.87533 8.54872 3.03577 8.54407 3.19246 8.57082C3.34914 8.59757 3.49896 8.65518 3.63319 8.74031C3.76743 8.82544 3.88342 8.93639 3.97442 9.06672C4.33922 9.57432 4.90202 10.0591 5.63042 10.4791C7.18202 11.3743 9.33242 11.8999 11.6448 11.8999C13.9584 11.8999 16.1088 11.3755 17.6604 10.4791C18.3888 10.0591 18.9516 9.57432 19.3164 9.06672C19.4074 8.93639 19.5234 8.82544 19.6576 8.74031C19.7919 8.65518 19.9417 8.59757 20.0984 8.57082C20.2551 8.54407 20.4155 8.54872 20.5704 8.5845C20.7253 8.62027 20.8715 8.68646 21.0006 8.77922C21.1297 8.87198 21.239 8.98946 21.3223 9.12484C21.4056 9.26022 21.4612 9.4108 21.4858 9.56784C21.5104 9.72487 21.5036 9.88524 21.4658 10.0396C21.4279 10.194 21.3597 10.3393 21.2652 10.4671C20.6892 11.2699 19.8684 11.9755 18.8604 12.5575C16.926 13.6735 14.3628 14.2999 11.6448 14.2999C8.92682 14.2999 6.36482 13.6735 4.43042 12.5575C3.42242 11.9755 2.60162 11.2699 2.02562 10.4671Z" fill="#838383"/>
<path d="M13.2 13.7C13.2 13.3817 13.0736 13.0765 12.8486 12.8514C12.6235 12.6264 12.3183 12.5 12 12.5C11.6818 12.5 11.3765 12.6264 11.1515 12.8514C10.9265 13.0765 10.8 13.3817 10.8 13.7V16.7C10.8 17.0182 10.9265 17.3234 11.1515 17.5485C11.3765 17.7735 11.6818 17.9 12 17.9C12.3183 17.9 12.6235 17.7735 12.8486 17.5485C13.0736 17.3234 13.2 17.0182 13.2 16.7V13.7ZM6.63603 13.4096C6.71757 13.1056 6.91526 12.8459 7.18648 12.6863C7.45771 12.5267 7.78078 12.48 8.08608 12.5563C8.39138 12.6327 8.65448 12.8259 8.8187 13.0943C8.98292 13.3628 9.03511 13.685 8.96403 13.9916L8.36403 16.3916C8.32665 16.5454 8.25921 16.6903 8.16559 16.818C8.07196 16.9456 7.95401 17.0535 7.81851 17.1353C7.68301 17.2172 7.53266 17.2715 7.37611 17.295C7.21955 17.3185 7.0599 17.3108 6.90634 17.2723C6.75277 17.2338 6.60834 17.1653 6.48136 17.0708C6.35438 16.9763 6.24735 16.8576 6.16646 16.7215C6.08556 16.5854 6.03239 16.4347 6.01 16.2779C5.98762 16.1212 5.99646 15.9616 6.03603 15.8084L6.63603 13.4096ZM16.764 13.4096C16.6825 13.1056 16.4848 12.8459 16.2136 12.6863C15.9423 12.5267 15.6193 12.48 15.314 12.5563C15.0087 12.6327 14.7456 12.8259 14.5814 13.0943C14.4171 13.3628 14.3649 13.685 14.436 13.9916L15.036 16.3916C15.0734 16.5454 15.1408 16.6903 15.2345 16.818C15.3281 16.9456 15.446 17.0535 15.5815 17.1353C15.717 17.2172 15.8674 17.2715 16.0239 17.295C16.1805 17.3185 16.3402 17.3108 16.4937 17.2723C16.6473 17.2338 16.7917 17.1653 16.9187 17.0708C17.0457 16.9763 17.1527 16.8576 17.2336 16.7215C17.3145 16.5854 17.3677 16.4347 17.3901 16.2779C17.4124 16.1212 17.4036 15.9616 17.364 15.8084L16.764 13.4096ZM19.83 10.4516C19.7193 10.3369 19.5869 10.2455 19.4405 10.1826C19.2941 10.1197 19.1366 10.0866 18.9773 10.0853C18.818 10.0839 18.66 10.1142 18.5125 10.1746C18.365 10.2349 18.231 10.324 18.1184 10.4367C18.0057 10.5493 17.9166 10.6833 17.8562 10.8308C17.7959 10.9783 17.7655 11.1363 17.7669 11.2956C17.7683 11.455 17.8014 11.6124 17.8643 11.7588C17.9272 11.9052 18.0186 12.0377 18.1332 12.1484L20.5332 14.5484C20.7595 14.7669 21.0627 14.8879 21.3773 14.8852C21.6919 14.8824 21.9929 14.7562 22.2154 14.5337C22.4379 14.3112 22.5641 14.0103 22.5668 13.6956C22.5696 13.381 22.4486 13.0779 22.23 12.8516L19.83 10.4516ZM3.69363 10.4924C3.79968 10.3757 3.92767 10.2812 4.07028 10.214C4.21288 10.1469 4.36732 10.1084 4.52477 10.101C4.68223 10.0935 4.83961 10.1171 4.98793 10.1705C5.13625 10.2238 5.27261 10.3059 5.38923 10.412C5.50584 10.518 5.60042 10.646 5.66757 10.7886C5.73473 10.9312 5.77313 11.0856 5.7806 11.2431C5.78806 11.4006 5.76444 11.5579 5.71109 11.7063C5.65773 11.8546 5.57568 11.9909 5.46963 12.1076L3.28803 14.5076C3.07384 14.7431 2.77486 14.8838 2.45688 14.8989C2.13889 14.914 1.82794 14.8021 1.59243 14.588C1.35691 14.3738 1.21613 14.0748 1.20106 13.7568C1.18598 13.4388 1.29784 13.1279 1.51203 12.8924L3.69363 10.4924Z" fill="#838383"/>
</svg>
