<svg width="12" height="12" viewBox="0 0 12 12" fill="none" xmlns="http://www.w3.org/2000/svg">
<g clip-path="url(#clip0_76_1097)">
<path d="M11.9995 5.99973C11.9995 5.18373 11.8415 4.40573 11.5255 3.66573C11.2215 2.94573 10.7935 2.30873 10.2415 1.75473C9.68951 1.20073 9.05351 0.773734 8.33351 0.473734C7.58951 0.157734 6.81051 -0.000266075 5.99651 -0.000266075C5.18251 -0.000266075 4.40551 0.157734 3.66551 0.473734C2.94551 0.773734 2.30851 1.20073 1.75451 1.75473C1.20051 2.30873 0.773512 2.94573 0.473512 3.66573C0.157512 4.40573 -0.000488281 5.18373 -0.000488281 5.99973C-0.000488281 6.73573 0.129512 7.44373 0.389512 8.12373C0.637512 8.78373 0.991512 9.38073 1.45151 9.91473C1.91151 10.4487 2.44751 10.8877 3.05951 11.2317C3.68751 11.5837 4.35551 11.8157 5.06351 11.9277V7.73373H3.53951V5.99973H5.06351V4.67973C5.06351 4.18373 5.15751 3.75773 5.34551 3.40173C5.52951 3.05773 5.79151 2.79573 6.13151 2.61573C6.47151 2.43573 6.86951 2.34573 7.32551 2.34573C7.52151 2.34573 7.73551 2.35573 7.96751 2.37573C8.13151 2.38773 8.29751 2.40573 8.46551 2.42973L8.66951 2.45973V3.93573H7.91351C7.56951 3.93573 7.31351 4.03373 7.14551 4.22973C7.00551 4.38973 6.93551 4.60373 6.93551 4.87173V5.99973H8.59751L8.33351 7.73373H6.93551V11.9277C7.64351 11.8157 8.31151 11.5837 8.93951 11.2317C9.54751 10.8877 10.0825 10.4487 10.5445 9.91473C11.0065 9.38073 11.3615 8.78373 11.6095 8.12373C11.8695 7.44373 11.9995 6.73573 11.9995 5.99973Z" fill="white"/>
</g>
<defs>
<clipPath id="clip0_76_1097">
<rect width="12" height="12" fill="white" transform="matrix(1 0 0 -1 -0.000488281 12)"/>
</clipPath>
</defs>
</svg>
