<svg width="49" height="48" viewBox="0 0 49 48" fill="none" xmlns="http://www.w3.org/2000/svg">
<rect width="48" height="48" transform="translate(0.142822)" fill="#4460A0"/>
<path fill-rule="evenodd" clip-rule="evenodd" d="M25.0802 37.7135H11.9435C11.1072 37.7135 10.4297 37.0355 10.4297 36.1995V11.7987C10.4297 10.9625 11.1073 10.2849 11.9435 10.2849H36.3445C37.1805 10.2849 37.8583 10.9625 37.8583 11.7987V36.1995C37.8583 37.0356 37.1804 37.7135 36.3445 37.7135H29.355V27.0916H32.9203L33.4541 22.9521H29.355V20.3093C29.355 19.1108 29.6878 18.2941 31.4064 18.2941L33.5984 18.2931V14.5907C33.2193 14.5402 31.9181 14.4275 30.4043 14.4275C27.2439 14.4275 25.0802 16.3566 25.0802 19.8993V22.9521H21.5058V27.0916H25.0802V37.7135Z" fill="white"/>
</svg>
