<svg width="24" height="25" viewBox="0 0 24 25" fill="none" xmlns="http://www.w3.org/2000/svg">
<g clip-path="url(#clip0_76_1572)">
<path fill-rule="evenodd" clip-rule="evenodd" d="M9.58613 15.5326V8.79846C11.9768 9.92337 13.8283 11.0101 16.0181 12.1817C14.212 13.1833 11.9768 14.3072 9.58613 15.5326ZM22.9092 5.44924C22.4968 4.90593 21.794 4.483 21.0457 4.34299C18.8463 3.92533 5.12518 3.92414 2.92698 4.34299C2.32693 4.45548 1.7926 4.72738 1.3336 5.14982C-0.600435 6.9449 0.00559942 16.5713 0.471777 18.1307C0.667809 18.8056 0.921228 19.2924 1.24038 19.6119C1.65157 20.0344 2.21456 20.3252 2.86123 20.4557C4.67215 20.8303 14.0016 21.0397 21.0074 20.5119C21.6529 20.3994 22.2243 20.0992 22.6749 19.6588C24.4631 17.8709 24.3412 7.70386 22.9092 5.44924Z" fill="white"/>
</g>
<defs>
<clipPath id="clip0_76_1572">
<rect width="24" height="24" fill="white" transform="translate(0 0.429688)"/>
</clipPath>
</defs>
</svg>
