<svg width="24" height="25" viewBox="0 0 24 25" fill="none" xmlns="http://www.w3.org/2000/svg">
<path d="M15 12.4297C15 13.023 14.8241 13.6031 14.4944 14.0964C14.1648 14.5897 13.6962 14.9743 13.1481 15.2013C12.5999 15.4284 11.9967 15.4878 11.4147 15.372C10.8328 15.2563 10.2982 14.9706 9.87868 14.551C9.45912 14.1314 9.1734 13.5969 9.05764 13.015C8.94189 12.433 9.0013 11.8298 9.22836 11.2816C9.45542 10.7335 9.83994 10.2649 10.3333 9.93528C10.8266 9.60563 11.4067 9.42969 12 9.42969C12.7954 9.4306 13.5579 9.74696 14.1203 10.3094C14.6827 10.8718 14.9991 11.6343 15 12.4297ZM21.375 8.30469V16.5547C21.3734 17.9466 20.8198 19.281 19.8356 20.2653C18.8513 21.2495 17.5169 21.8031 16.125 21.8047H7.875C6.4831 21.8031 5.14865 21.2495 4.16443 20.2653C3.18021 19.281 2.62658 17.9466 2.625 16.5547V8.30469C2.62658 6.91278 3.18021 5.57834 4.16443 4.59412C5.14865 3.60989 6.4831 3.05626 7.875 3.05469H16.125C17.5169 3.05626 18.8513 3.60989 19.8356 4.59412C20.8198 5.57834 21.3734 6.91278 21.375 8.30469ZM16.5 12.4297C16.5 11.5397 16.2361 10.6696 15.7416 9.92962C15.2471 9.1896 14.5443 8.61282 13.7221 8.27223C12.8998 7.93164 11.995 7.84252 11.1221 8.01615C10.2492 8.18979 9.44736 8.61837 8.81802 9.24771C8.18868 9.87704 7.7601 10.6789 7.58647 11.5518C7.41283 12.4247 7.50195 13.3295 7.84254 14.1518C8.18314 14.974 8.75991 15.6768 9.49993 16.1713C10.24 16.6658 11.11 16.9297 12 16.9297C13.1931 16.9283 14.3369 16.4538 15.1805 15.6102C16.0241 14.7666 16.4987 13.6227 16.5 12.4297ZM18 7.55469C18 7.33218 17.934 7.11468 17.8104 6.92967C17.6868 6.74467 17.5111 6.60047 17.3055 6.51532C17.1 6.43017 16.8738 6.4079 16.6555 6.4513C16.4373 6.49471 16.2368 6.60186 16.0795 6.75919C15.9222 6.91653 15.815 7.11698 15.7716 7.33521C15.7282 7.55344 15.7505 7.77964 15.8356 7.98521C15.9208 8.19077 16.065 8.36647 16.25 8.49009C16.435 8.61371 16.6525 8.67969 16.875 8.67969C17.1734 8.67969 17.4595 8.56116 17.6705 8.35018C17.8815 8.1392 18 7.85306 18 7.55469Z" fill="white"/>
</svg>
