<svg width="18" height="17" viewBox="0 0 18 17" fill="none" xmlns="http://www.w3.org/2000/svg">
<path d="M9 11.75L9.84375 12.1875L12.5 13.625L11.9688 10.5625L11.8125 9.6875L12.4688 9.03125L14.6562 6.875L11.6562 6.4375L10.75 6.28125L10.3438 5.46875L9 2.71875V11.75ZM14.4688 14.8438C14.5312 15.2396 14.3958 15.5625 14.0625 15.8125C13.7292 16.0417 13.375 16.0625 13 15.875L9 13.75L5 15.875C4.625 16.0625 4.27083 16.0417 3.9375 15.8125C3.625 15.5625 3.48958 15.2396 3.53125 14.8438L4.3125 10.2812L1.0625 7.0625C0.770833 6.77083 0.6875 6.42708 0.8125 6.03125C0.9375 5.65625 1.19792 5.4375 1.59375 5.375L6.09375 4.6875L8.09375 0.5625C8.30208 0.208333 8.60417 0.0208333 9 0C9.41667 0.0208333 9.71875 0.208333 9.90625 0.5625L11.9062 4.6875L16.4062 5.375C16.8021 5.4375 17.0729 5.65625 17.2188 6.03125C17.3229 6.42708 17.2396 6.77083 16.9688 7.0625L13.7188 10.2812L14.4688 14.8438Z" fill="#FFB108"/>
</svg>
