<svg width="49" height="48" viewBox="0 0 49 48" fill="none" xmlns="http://www.w3.org/2000/svg">
<rect width="48" height="48" transform="translate(0.285645)" fill="#3F729B"/>
<path fill-rule="evenodd" clip-rule="evenodd" d="M8.85681 22.2855C8.85681 15.8205 8.85681 12.588 10.8652 10.5796C12.8736 8.57117 16.1061 8.57117 22.5711 8.57117H25.9997C32.4646 8.57117 35.6972 8.57117 37.7055 10.5796C39.714 12.588 39.714 15.8205 39.714 22.2855V25.714C39.714 32.1789 39.714 35.4116 37.7055 37.4199C35.6972 39.4283 32.4646 39.4283 25.9997 39.4283H22.5711C16.1061 39.4283 12.8736 39.4283 10.8652 37.4199C8.85681 35.4116 8.85681 32.1789 8.85681 25.714V22.2855ZM34.5711 16.2855C34.5711 17.7056 33.4198 18.8569 31.9997 18.8569C30.5796 18.8569 29.4282 17.7056 29.4282 16.2855C29.4282 14.8653 30.5796 13.714 31.9997 13.714C33.4198 13.714 34.5711 14.8653 34.5711 16.2855ZM27.714 25.714C27.714 27.6076 26.179 29.1426 24.2854 29.1426C22.3918 29.1426 20.8568 27.6076 20.8568 25.714C20.8568 23.8204 22.3918 22.2855 24.2854 22.2855C26.179 22.2855 27.714 23.8204 27.714 25.714ZM31.1425 25.714C31.1425 29.5011 28.0724 32.5712 24.2854 32.5712C20.4983 32.5712 17.4282 29.5011 17.4282 25.714C17.4282 21.927 20.4983 18.8569 24.2854 18.8569C28.0724 18.8569 31.1425 21.927 31.1425 25.714Z" fill="white"/>
</svg>
