<svg width="12" height="12" viewBox="0 0 12 12" fill="none" xmlns="http://www.w3.org/2000/svg">
<g clip-path="url(#clip0_76_1101)">
<path d="M5.99951 0C5.22751 0 4.69151 0.00199986 4.39151 0.00599957C4.15951 0.0100002 3.87151 0.0199995 3.52751 0.0360003C3.21951 0.052 2.94351 0.0839996 2.69951 0.132C2.48351 0.176 2.27351 0.237 2.06951 0.315C1.86551 0.393 1.68151 0.486 1.51751 0.594C1.33751 0.706 1.16651 0.842999 1.00451 1.005C0.842512 1.167 0.705512 1.338 0.593512 1.518C0.485512 1.682 0.392512 1.866 0.314512 2.07C0.236512 2.274 0.175512 2.484 0.131512 2.7C0.0835117 2.948 0.0515117 3.224 0.0355117 3.528C0.0195117 3.864 0.00951172 4.152 0.00551172 4.392C0.00151172 4.68 -0.000488281 5.216 -0.000488281 6C-0.000488281 6.772 0.00151172 7.308 0.00551172 7.608C0.00951172 7.84 0.0195117 8.128 0.0355117 8.472C0.0515117 8.776 0.0835117 9.052 0.131512 9.3C0.175512 9.516 0.236512 9.726 0.314512 9.93C0.392512 10.134 0.485512 10.318 0.593512 10.482C0.705512 10.662 0.843512 10.833 1.00751 10.995C1.17151 11.157 1.34151 11.294 1.51751 11.406C1.68151 11.514 1.86551 11.607 2.06951 11.685C2.27351 11.763 2.48351 11.824 2.69951 11.868C2.94751 11.916 3.22351 11.948 3.52751 11.964C3.86351 11.98 4.15151 11.99 4.39151 11.994C4.67951 11.998 5.21551 12 5.99951 12C6.77151 12 7.30751 11.998 7.60751 11.994C7.83951 11.99 8.12751 11.98 8.47151 11.964C8.77551 11.948 9.05151 11.916 9.29951 11.868C9.51551 11.824 9.72551 11.763 9.92951 11.685C10.1335 11.607 10.3175 11.514 10.4815 11.406C10.6615 11.294 10.8325 11.156 10.9945 10.992C11.1565 10.828 11.2935 10.658 11.4055 10.482C11.5135 10.318 11.6065 10.134 11.6845 9.93C11.7625 9.726 11.8235 9.516 11.8675 9.3C11.9155 9.052 11.9475 8.776 11.9635 8.472C11.9795 8.136 11.9895 7.848 11.9935 7.608C11.9975 7.32 11.9995 6.784 11.9995 6C11.9995 5.228 11.9975 4.692 11.9935 4.392C11.9895 4.16 11.9795 3.872 11.9635 3.528C11.9475 3.224 11.9155 2.948 11.8675 2.7C11.8235 2.484 11.7625 2.274 11.6845 2.07C11.6065 1.866 11.5135 1.682 11.4055 1.518C11.2935 1.338 11.1555 1.167 10.9915 1.005C10.8275 0.842999 10.6575 0.706 10.4815 0.594C10.3175 0.486 10.1335 0.393 9.92951 0.315C9.72551 0.237 9.51551 0.176 9.29951 0.132C9.05151 0.0839996 8.77551 0.052 8.47151 0.0360003C8.13551 0.0199995 7.84751 0.0100002 7.60751 0.00599957C7.31951 0.00199986 6.78351 0 5.99951 0ZM5.99951 1.08C6.75151 1.08 7.27751 1.082 7.57751 1.086C7.79751 1.09 8.07951 1.1 8.42351 1.116C8.86751 1.136 9.23951 1.204 9.53951 1.32C9.67951 1.376 9.80251 1.439 9.90851 1.509C10.0145 1.579 10.1205 1.666 10.2265 1.77C10.3325 1.874 10.4205 1.98 10.4905 2.088C10.5605 2.196 10.6225 2.319 10.6765 2.457C10.7305 2.595 10.7715 2.736 10.7995 2.88C10.8435 3.08 10.8715 3.312 10.8835 3.576C10.8995 3.912 10.9095 4.194 10.9135 4.422C10.9175 4.71 10.9195 5.235 10.9195 5.997C10.9195 6.759 10.9175 7.286 10.9135 7.578C10.9095 7.802 10.8995 8.084 10.8835 8.424C10.8595 8.868 10.7895 9.24 10.6735 9.54C10.6135 9.68 10.5495 9.804 10.4815 9.912C10.4135 10.02 10.3275 10.126 10.2235 10.23C10.1195 10.334 10.0135 10.421 9.90551 10.491C9.79751 10.561 9.67351 10.624 9.53351 10.68C9.22951 10.796 8.85551 10.864 8.41151 10.884C8.07551 10.9 7.79151 10.91 7.55951 10.914C7.27551 10.918 6.75151 10.92 5.98751 10.92C5.22351 10.92 4.69551 10.918 4.40351 10.914C4.17951 10.91 3.89751 10.9 3.55751 10.884C3.10951 10.86 2.73551 10.79 2.43551 10.674C2.29551 10.618 2.17251 10.555 2.06651 10.485C1.96051 10.415 1.85451 10.327 1.74851 10.221C1.64251 10.115 1.55351 10.008 1.48151 9.9C1.40951 9.792 1.34751 9.67 1.29551 9.534C1.17951 9.234 1.10951 8.86 1.08551 8.412V8.382C1.07351 8.042 1.06551 7.764 1.06151 7.548C1.05751 7.24 1.05551 6.721 1.05551 5.991C1.05551 5.261 1.05751 4.742 1.06151 4.434C1.06551 4.218 1.07351 3.94 1.08551 3.6V3.564C1.10951 3.116 1.17951 2.742 1.29551 2.442C1.34751 2.306 1.40851 2.184 1.47851 2.076C1.54851 1.968 1.63751 1.86 1.74551 1.752C1.85351 1.644 1.96151 1.555 2.06951 1.485C2.17751 1.415 2.29951 1.356 2.43551 1.308C2.73551 1.188 3.10551 1.116 3.54551 1.092H3.57551C3.91951 1.08 4.19951 1.074 4.41551 1.074C4.71951 1.07 5.23951 1.066 5.97551 1.062L5.99951 1.08ZM5.99951 2.916C5.57951 2.916 5.17951 2.998 4.79951 3.162C4.43151 3.318 4.10551 3.538 3.82151 3.822C3.53751 4.106 3.31751 4.432 3.16151 4.8C3.00151 5.184 2.92151 5.585 2.92151 6.003C2.92151 6.421 3.00151 6.82 3.16151 7.2C3.31751 7.568 3.53751 7.894 3.82151 8.178C4.10551 8.462 4.43151 8.682 4.79951 8.838C5.18351 8.998 5.58451 9.078 6.00251 9.078C6.42051 9.078 6.81951 8.998 7.19951 8.838C7.56751 8.682 7.89351 8.462 8.17751 8.178C8.46151 7.894 8.68151 7.568 8.83751 7.2C9.00151 6.816 9.08251 6.415 9.08051 5.997C9.07851 5.579 8.99751 5.18 8.83751 4.8C8.68151 4.432 8.46151 4.106 8.17751 3.822C7.89351 3.538 7.56751 3.318 7.19951 3.162C6.81551 2.998 6.41551 2.916 5.99951 2.916ZM5.99951 7.998C5.63551 7.998 5.29951 7.908 4.99151 7.728C4.68751 7.552 4.44751 7.312 4.27151 7.008C4.09151 6.7 4.00151 6.364 4.00151 6C4.00151 5.636 4.09151 5.3 4.27151 4.992C4.44751 4.688 4.68751 4.448 4.99151 4.272C5.29951 4.092 5.63551 4.002 5.99951 4.002C6.36351 4.002 6.69951 4.092 7.00751 4.272C7.31151 4.448 7.55151 4.688 7.72751 4.992C7.90751 5.3 7.99751 5.636 7.99751 6C7.99751 6.364 7.90751 6.7 7.72751 7.008C7.55151 7.312 7.31151 7.552 7.00751 7.728C6.69951 7.908 6.36351 7.998 5.99951 7.998ZM9.92351 2.796C9.92351 2.928 9.89151 3.049 9.82751 3.159C9.76351 3.269 9.67551 3.356 9.56351 3.42C9.45151 3.484 9.33051 3.516 9.20051 3.516C9.07051 3.516 8.95051 3.484 8.84051 3.42C8.73051 3.356 8.64351 3.269 8.57951 3.159C8.51551 3.049 8.48351 2.929 8.48351 2.799C8.48351 2.669 8.51551 2.549 8.57951 2.439C8.64351 2.329 8.73051 2.241 8.84051 2.175C8.95051 2.109 9.07051 2.076 9.20051 2.076C9.33051 2.076 9.45051 2.109 9.56051 2.175C9.67051 2.241 9.75851 2.329 9.82451 2.439C9.89051 2.549 9.92351 2.668 9.92351 2.796Z" fill="white"/>
</g>
<defs>
<clipPath id="clip0_76_1101">
<rect width="12" height="12" fill="white" transform="matrix(1 0 0 -1 -0.000488281 12)"/>
</clipPath>
</defs>
</svg>
