<svg width="16" height="16" viewBox="0 0 16 16" fill="none" xmlns="http://www.w3.org/2000/svg">
<path d="M4.6617 -0.00585938C2.17139 -0.00585938 0.125 2.03772 0.125 4.53084V10.886C0.125 13.3763 2.16858 15.4227 4.6617 15.4227H11.0169C13.5072 15.4227 15.5536 13.3791 15.5536 10.886V4.53154C15.5536 2.04053 13.51 -0.00585938 11.0169 -0.00585938H4.6617ZM4.6617 1.39674H11.0169C11.4286 1.39618 11.8364 1.47687 12.2169 1.63418C12.5974 1.79149 12.9431 2.02232 13.2343 2.31346C13.5254 2.6046 13.7562 2.95032 13.9135 3.33082C14.0708 3.71131 14.1515 4.11911 14.151 4.53084V10.886C14.1515 11.2977 14.0708 11.7055 13.9135 12.086C13.7562 12.4665 13.5254 12.8123 13.2343 13.1034C12.9431 13.3945 12.5974 13.6254 12.2169 13.7827C11.8364 13.94 11.4286 14.0207 11.0169 14.0201H4.6624C4.25061 14.0208 3.84274 13.9401 3.46216 13.7829C3.08158 13.6256 2.73578 13.3948 2.44457 13.1036C2.15335 12.8125 1.92246 12.4667 1.76511 12.0862C1.60775 11.7057 1.52704 11.2978 1.5276 10.886V4.53154C1.52695 4.11975 1.60757 3.71188 1.76484 3.3313C1.9221 2.95073 2.15292 2.60492 2.44407 2.31371C2.73522 2.02249 3.08097 1.7916 3.46151 1.63425C3.84206 1.47689 4.24991 1.39618 4.6617 1.39674V1.39674ZM11.9812 2.93118C11.8976 2.93081 11.8148 2.94699 11.7376 2.97879C11.6603 3.01059 11.5901 3.05738 11.531 3.11645C11.472 3.17552 11.4252 3.24571 11.3934 3.32297C11.3616 3.40022 11.3454 3.48301 11.3458 3.56656C11.3458 3.92001 11.6277 4.20193 11.9812 4.20193C12.0648 4.2024 12.1476 4.18628 12.225 4.15453C12.3023 4.12277 12.3726 4.076 12.4317 4.01691C12.4909 3.95783 12.5377 3.88761 12.5696 3.81031C12.6014 3.733 12.6176 3.65016 12.6172 3.56656C12.6176 3.48295 12.6014 3.40011 12.5696 3.32281C12.5377 3.2455 12.4909 3.17528 12.4317 3.1162C12.3726 3.05712 12.3023 3.01034 12.225 2.97859C12.1476 2.94683 12.0648 2.93072 11.9812 2.93118V2.93118ZM7.83929 3.50063C5.525 3.50063 3.63149 5.39414 3.63149 7.70843C3.63149 10.0227 5.525 11.9162 7.83929 11.9162C10.1536 11.9162 12.0471 10.0227 12.0471 7.70843C12.0471 5.39414 10.1536 3.50063 7.83929 3.50063ZM7.83929 4.90323C9.39827 4.90323 10.6445 6.14944 10.6445 7.70843C10.6445 9.26741 9.39827 10.5136 7.83929 10.5136C6.2803 10.5136 5.03409 9.26741 5.03409 7.70843C5.03409 6.14944 6.2803 4.90323 7.83929 4.90323Z" fill="#434CF4"/>
</svg>
