<svg width="14" height="15" viewBox="0 0 14 15" fill="none" xmlns="http://www.w3.org/2000/svg">
<path d="M2.01945 0.961915C1.80668 0.961753 1.59597 1.00351 1.39935 1.0848C1.20273 1.16609 1.02404 1.28533 0.873512 1.43569C0.722979 1.58605 0.603544 1.7646 0.522029 1.96113C0.440515 2.15766 0.398518 2.36832 0.398438 2.58108C0.398437 3.47654 1.124 4.21866 2.01761 4.21866C2.91245 4.21866 3.63862 3.47654 3.63862 2.58231C3.63878 2.36958 3.59702 2.15889 3.51572 1.96231C3.43442 1.76572 3.31518 1.58708 3.16481 1.43659C3.01444 1.28611 2.83589 1.16673 2.63936 1.08528C2.44283 1.00384 2.23218 0.961914 2.01945 0.961915ZM9.9264 5.25517C8.56544 5.25517 7.78713 5.96662 7.413 6.6744H7.37375V5.44591H4.69169V14.455H7.4866V9.99554C7.4866 8.82041 7.57492 7.68454 9.02911 7.68454C10.4624 7.68454 10.4833 9.02465 10.4833 10.0697V14.455H13.2782V9.50672C13.2782 7.08532 12.7575 5.25517 9.9264 5.25517ZM0.621073 5.4453V14.455H3.41782V5.4453H0.621073Z" fill="#434CF4"/>
</svg>
