<svg width="12" height="16" viewBox="0 0 12 16" fill="none" xmlns="http://www.w3.org/2000/svg">
<path d="M11 6C10.9583 4.58333 10.4688 3.40625 9.53125 2.46875C8.59375 1.53125 7.41667 1.04167 6 1C4.58333 1.04167 3.40625 1.53125 2.46875 2.46875C1.53125 3.40625 1.04167 4.58333 1 6C1 6.5 1.17708 7.15625 1.53125 7.96875C1.88542 8.80208 2.33333 9.66667 2.875 10.5625C3.41667 11.4375 3.96875 12.25 4.53125 13C5.09375 13.7708 5.58333 14.4167 6 14.9375C6.41667 14.4167 6.90625 13.7708 7.46875 13C8.03125 12.25 8.58333 11.4375 9.125 10.5625C9.6875 9.66667 10.1458 8.80208 10.5 7.96875C10.8333 7.15625 11 6.5 11 6ZM12 6C11.9583 6.9375 11.625 8.02083 11 9.25C10.3542 10.4792 9.625 11.6667 8.8125 12.8125C8 13.9792 7.3125 14.9062 6.75 15.5938C6.54167 15.8438 6.29167 15.9688 6 15.9688C5.70833 15.9688 5.45833 15.8438 5.25 15.5938C4.6875 14.9062 4 13.9792 3.1875 12.8125C2.375 11.6667 1.64583 10.4792 1 9.25C0.375 8.02083 0.0416667 6.9375 0 6C0.0416667 4.29167 0.625 2.875 1.75 1.75C2.875 0.625 4.29167 0.0416667 6 0C7.70833 0.0416667 9.125 0.625 10.25 1.75C11.375 2.875 11.9583 4.29167 12 6ZM4.5 6C4.52083 6.5625 4.77083 7 5.25 7.3125C5.75 7.5625 6.25 7.5625 6.75 7.3125C7.22917 7 7.47917 6.5625 7.5 6C7.47917 5.4375 7.22917 5 6.75 4.6875C6.25 4.4375 5.75 4.4375 5.25 4.6875C4.77083 5 4.52083 5.4375 4.5 6ZM6 8.5C5.0625 8.47917 4.34375 8.0625 3.84375 7.25C3.38542 6.41667 3.38542 5.58333 3.84375 4.75C4.34375 3.9375 5.0625 3.52083 6 3.5C6.9375 3.52083 7.65625 3.9375 8.15625 4.75C8.61458 5.58333 8.61458 6.41667 8.15625 7.25C7.65625 8.0625 6.9375 8.47917 6 8.5Z" fill="#434CF4"/>
</svg>
