<svg width="392" height="107" viewBox="0 0 392 107" fill="none" xmlns="http://www.w3.org/2000/svg">
<path d="M111.491 39.3655C119.905 39.3655 126.725 46.1859 126.725 54.5992" stroke="#263238" stroke-width="3.45054" stroke-miterlimit="10" stroke-linecap="round"/>
<path d="M117.98 40.8154C118.048 40.3408 118.096 39.8592 118.096 39.3657C118.096 33.8028 113.586 29.2935 108.024 29.2935C106.56 29.2935 105.174 29.6124 103.919 30.1736C102.538 21.0517 94.6646 14.0598 85.1571 14.0598C81.8521 14.0598 78.7452 14.9063 76.0393 16.392C74.1368 12.2569 71.0659 8.77571 67.2551 6.35506C67.3913 6.44113 67.5281 6.52602 67.6625 6.61504C65.7164 6.09271 61.9929 4.08828 59.8817 4.0529C47.4313 3.84362 40.5254 11.7169 39.17 22.1754C37.6661 21.7697 36.0861 21.5498 34.4537 21.5498C24.4716 21.5498 16.3802 29.6419 16.3802 39.6234C16.3802 41.2647 16.603 42.8535 17.0133 44.365C12.3259 46.9626 10.9258 52.5667 11.4416 56.5213C12.5158 64.7554 21.5375 68.6317 24.9026 69.832C25.7545 69.9799 22.8292 69.832 23.7235 69.832H111.492C119.905 69.832 126.726 63.0116 126.726 54.5983C126.725 48.5071 123.148 43.252 117.98 40.8154Z" fill="url(#paint0_linear_173_155)"/>
<path d="M117.98 40.8154C118.048 40.3408 118.096 39.8592 118.096 39.3657C118.096 33.8028 113.587 29.2934 108.024 29.2934C106.56 29.2934 105.174 29.6124 103.919 30.1736C102.539 21.0517 94.6647 14.0597 85.1572 14.0597C81.8523 14.0597 78.7454 14.9063 76.0394 16.392C72.3229 8.31349 64.1637 2.70166 54.688 2.70166C44.1942 2.70166 35.3099 9.58217 32.2938 19.0773C30.7899 18.6717 29.2099 18.4518 27.5775 18.4518C17.5954 18.4518 9.50335 26.5438 9.50335 36.5253C9.50335 38.1672 9.7262 39.7554 10.1365 41.267C5.44909 43.8645 2.27441 48.8603 2.27441 54.5989C2.27441 63.0122 9.0948 69.8326 17.5081 69.8326H111.492C119.905 69.8326 126.726 63.0122 126.726 54.5989C126.725 48.5071 123.148 43.252 117.98 40.8154Z" stroke="#263238" stroke-width="3.45054" stroke-miterlimit="10" stroke-linecap="round"/>
<path d="M108.568 41.4397C108.568 41.4397 108.708 41.1697 108.986 40.7582C109.135 40.556 109.273 40.3084 109.547 40.0714C109.804 39.8338 110.123 39.5444 110.494 39.2991C110.865 39.0822 111.277 38.8116 111.751 38.6376C112.225 38.4631 112.742 38.2769 113.296 38.2079C113.85 38.0912 114.426 38.0894 115.017 38.0941C115.311 38.1023 115.6 38.1495 115.894 38.1884L116.334 38.255L116.761 38.3635C117.336 38.5015 117.879 38.7172 118.4 38.9536C118.661 39.0692 118.9 39.2201 119.139 39.3604C119.38 39.4978 119.613 39.6393 119.821 39.8102C120.258 40.1186 120.638 40.4693 120.976 40.8166C121.315 41.1638 121.594 41.5352 121.838 41.8766C122.066 42.2409 122.27 42.5634 122.411 42.8865C122.552 43.2078 122.669 43.4807 122.738 43.7295C122.876 44.2235 122.911 44.5183 122.911 44.5183C122.911 44.5183 122.606 44.4505 122.146 44.3102C121.922 44.2424 121.65 44.1605 121.338 44.0661C121.046 43.9736 120.717 43.8692 120.358 43.7554C120.019 43.6481 119.652 43.5314 119.262 43.4082C118.885 43.2868 118.498 43.1612 118.104 43.0421C117.718 42.9042 117.31 42.8122 116.918 42.6819C116.52 42.5752 116.127 42.4484 115.731 42.3588C115.536 42.2952 115.339 42.2492 115.143 42.212C114.948 42.1749 114.754 42.1077 114.56 42.0729C114.366 42.0428 114.174 41.9998 113.981 41.9526C113.787 41.896 113.598 41.9013 113.407 41.8548C113.024 41.7722 112.65 41.7439 112.276 41.6868C111.902 41.6237 111.544 41.629 111.187 41.5759C110.833 41.5506 110.509 41.527 110.222 41.5064C109.917 41.4604 109.608 41.5052 109.364 41.4904C108.869 41.4804 108.568 41.4397 108.568 41.4397Z" fill="#263238"/>
<path d="M15.2016 49.6968C15.2016 49.6968 15.1097 49.6638 14.9375 49.6019C14.773 49.5305 14.5172 49.448 14.2195 49.3012C13.9259 49.1468 13.5432 48.951 13.16 48.6875C12.7633 48.4322 12.3453 48.108 11.9055 47.7266C11.4769 47.3369 11.0312 46.8876 10.6056 46.37C10.1823 45.8518 9.77373 45.2699 9.4035 44.6338C8.66186 43.3628 8.10356 41.863 7.80349 40.3125C7.65964 39.5361 7.56827 38.7496 7.56001 37.9738C7.53584 37.5871 7.5606 37.2027 7.58183 36.8242L7.59716 36.5418C7.60482 36.4009 7.61366 36.3567 7.62191 36.26C7.63488 36.0973 7.66319 35.924 7.69148 35.7247C7.79524 34.9695 7.96031 34.298 8.16017 33.6531C8.36297 33.014 8.60526 32.4292 8.86584 31.9098C9.38699 30.8687 9.97653 30.0964 10.4311 29.5976C10.8933 29.1006 11.2051 28.8601 11.2051 28.8601C11.2051 28.8601 11.2063 28.958 11.2081 29.1407C11.1992 29.3176 11.2116 29.5864 11.1998 29.9083C11.191 30.5586 11.1757 31.457 11.1886 32.4805C11.1922 32.9922 11.2075 33.5375 11.2346 34.1035C11.2582 34.6629 11.2989 35.2713 11.3496 35.8438C11.3997 36.4764 11.4775 37.063 11.5524 37.6879C11.5907 37.9962 11.6414 38.3051 11.6903 38.614C11.7304 38.9247 11.7894 39.2331 11.8554 39.5396C11.9544 40.1598 12.1124 40.767 12.2486 41.3731C12.3264 41.6732 12.4119 41.9697 12.4803 42.2698C12.5705 42.5616 12.656 42.8534 12.7344 43.1447C12.916 43.7171 13.0917 44.2801 13.2803 44.8142C13.4666 45.3501 13.6588 45.8595 13.8398 46.3405C14.0284 46.8163 14.2029 47.2649 14.371 47.6641C14.5372 48.0708 14.6817 48.4258 14.8013 48.7176C15.0684 49.3242 15.2016 49.6968 15.2016 49.6968Z" fill="#263238"/>
<path d="M85.1578 14.0603C85.1578 14.0603 85.3924 14.0308 85.8322 13.976C86.0521 13.9518 86.3233 13.9224 86.6417 13.887C86.8015 13.8717 86.9718 13.8457 87.1558 13.8357C87.3421 13.8386 87.5407 13.8416 87.75 13.8445C88.1704 13.854 88.6461 13.854 89.1632 13.8787C89.669 13.9336 90.2161 14.0161 90.808 14.0963C91.3975 14.1876 92.0012 14.3798 92.6597 14.5361C93.3117 14.7106 93.9591 15.0006 94.6642 15.2524C95.009 15.3938 95.3403 15.5801 95.6899 15.7511C96.0319 15.935 96.4051 16.0883 96.7417 16.3112C97.4179 16.751 98.1519 17.176 98.8098 17.7396C100.2 18.7837 101.452 20.1567 102.584 21.6978C102.849 22.0975 103.116 22.5007 103.385 22.9069C103.645 23.3196 103.848 23.7683 104.083 24.2045L104.425 24.8677L104.708 25.5622C104.886 26.0309 105.088 26.4961 105.237 26.9801C105.508 27.9564 105.814 28.9379 105.931 29.962C106.014 30.4696 106.101 30.9777 106.112 31.4936L106.156 32.2653L106.177 32.6514L106.187 32.8442L106.192 32.9409L106.194 32.9892L106.196 33.0134C106.195 33.0682 106.199 32.9256 106.194 33.1419L106.116 34.5362C106.095 34.7785 106.106 34.9778 106.059 35.2554L105.94 36.056C105.845 36.579 105.801 37.1443 105.647 37.623C105.511 38.1153 105.374 38.6064 105.239 39.0957C105.091 39.5797 104.887 40.0443 104.712 40.5141L104.429 41.2086L104.087 41.8718C103.852 42.3081 103.649 42.7567 103.389 43.1694C103.12 43.5756 102.853 43.9794 102.589 44.3797C101.456 45.9214 100.204 47.295 98.8139 48.3391C98.156 48.9033 97.4208 49.3266 96.7452 49.7676C96.4086 49.9904 96.0348 50.1431 95.6929 50.327C95.3427 50.4974 95.012 50.6849 94.6665 50.8264C93.9608 51.0781 93.3129 51.367 92.6609 51.5426C92.0024 51.6983 91.3981 51.8899 90.8086 51.9813C90.2161 52.0609 89.669 52.144 89.1632 52.1982C88.6508 52.2206 88.1816 52.22 87.763 52.2295C87.5543 52.2324 87.3568 52.2354 87.1711 52.2383C86.9848 52.2295 86.8091 52.2029 86.6476 52.1876C86.3257 52.1522 86.0516 52.1228 85.8299 52.0986C85.3913 52.0432 85.1572 52.0137 85.1572 52.0137C85.1572 52.0137 85.3883 51.9606 85.8216 51.8616C86.0356 51.8156 86.2992 51.7584 86.6098 51.6912C86.9188 51.634 87.2684 51.5391 87.6539 51.4159C88.0401 51.2968 88.4657 51.1777 88.9203 51.028C89.3659 50.8376 89.8476 50.656 90.354 50.4532C90.8569 50.2404 91.368 49.9544 91.9104 49.6921C92.4475 49.4144 92.9751 49.0501 93.5375 48.7182C94.0693 48.3285 94.6299 47.9423 95.1688 47.4955C95.6835 47.015 96.2618 46.587 96.7446 46.0216C97.8011 44.9929 98.6972 43.72 99.5231 42.3812C100.34 41.0241 100.927 39.5037 101.407 37.9402C101.5 37.5417 101.593 37.1414 101.687 36.7393C101.744 36.5365 101.773 36.3408 101.793 36.1504L101.877 35.5744L101.967 34.9984C102.005 34.818 101.995 34.5486 102.012 34.3275L102.074 32.9327C102.069 33.1349 102.072 32.9775 102.071 33.0175L102.069 32.9981L102.068 32.9592L102.064 32.8814L102.056 32.7257L102.042 32.4144L102.016 31.7919C102.018 31.3745 101.947 30.9654 101.885 30.5562L101.798 29.9425C101.778 29.7362 101.745 29.5328 101.69 29.3341C101.596 28.9326 101.503 28.5323 101.41 28.1332C100.934 26.568 100.341 25.0493 99.5273 23.6904C98.7013 22.351 97.8046 21.0776 96.7482 20.0483C96.2653 19.4823 95.6858 19.0555 95.1717 18.5738C94.6329 18.127 94.0711 17.742 93.5399 17.3511C92.9769 17.0186 92.4492 16.6561 91.9116 16.3772C91.3686 16.1149 90.8575 15.8301 90.354 15.6167C89.847 15.4145 89.3654 15.2323 88.9197 15.0425C88.471 14.8945 88.0513 14.776 87.6669 14.6569C87.286 14.5343 86.9323 14.4382 86.6146 14.381C86.3009 14.3138 86.0345 14.2572 85.8181 14.2112C85.3883 14.1128 85.1578 14.0603 85.1578 14.0603Z" fill="#263238"/>
<path d="M54.6885 49.6938C54.6885 49.6938 54.3984 49.7204 53.8549 49.7699C53.5831 49.7911 53.2483 49.8176 52.8544 49.8489C52.6569 49.8619 52.4465 49.8872 52.2195 49.8931C51.9902 49.8837 51.7467 49.8736 51.4891 49.863C50.9726 49.8383 50.3908 49.8241 49.7582 49.7787C49.1392 49.6944 48.47 49.5812 47.7467 49.4669C47.0274 49.3395 46.2905 49.0901 45.4893 48.8844C45.0825 48.7936 44.7029 48.6079 44.2955 48.4576C43.8905 48.2978 43.4755 48.1339 43.0522 47.9665C42.6336 47.7867 42.2321 47.5526 41.8076 47.3374C41.3932 47.1063 40.9404 46.9142 40.5331 46.6359C39.7154 46.0864 38.8246 45.56 38.0311 44.862C36.3497 43.5715 34.8422 41.883 33.4769 39.9994C33.1579 39.5107 32.8366 39.0179 32.513 38.5215C32.1987 38.018 31.9558 37.4703 31.6723 36.9391L31.2608 36.1309L30.9218 35.2843C30.7078 34.7136 30.4637 34.1477 30.2845 33.5593C30.1218 32.9645 29.9591 32.3673 29.7952 31.7683C29.6077 31.1734 29.5629 30.5474 29.4503 29.9336C29.3507 29.317 29.2446 28.6997 29.2322 28.0731L29.1797 27.1357L29.1544 26.6664L29.142 26.4318L29.1361 26.3145L29.1331 26.2555L29.1314 26.226C29.132 26.1694 29.1278 26.3103 29.1325 26.0922L29.2275 24.366C29.2528 24.0683 29.2393 23.8136 29.2958 23.4811L29.4409 22.5166L29.5918 21.5551L29.672 21.0764L29.7917 20.6248C29.9555 20.0258 30.1182 19.4286 30.281 18.8338C30.4596 18.2448 30.706 17.6801 30.9165 17.1076L31.2555 16.261L31.6676 15.4528C31.9511 14.9216 32.1946 14.3733 32.5088 13.8699C32.8325 13.3729 33.1532 12.88 33.4716 12.3907C34.8375 10.5065 36.345 8.81751 38.0263 7.52642C38.8204 6.82782 39.7118 6.30312 40.5289 5.7519C40.9363 5.47364 41.3897 5.28145 41.8041 5.05035C42.2292 4.83634 42.6301 4.60112 43.0492 4.42131C43.4731 4.25447 43.8875 4.09058 44.2931 3.93081C44.7011 3.78107 45.0808 3.59478 45.487 3.50399C46.2887 3.29824 47.0257 3.05004 47.7455 2.92211C48.4694 2.80892 49.1386 2.69455 49.7576 2.61084C50.3849 2.5678 50.9608 2.55424 51.4749 2.52948C51.7314 2.51887 51.9743 2.50884 52.203 2.5C52.4323 2.50472 52.6481 2.53066 52.848 2.54363C53.2453 2.57487 53.5831 2.6014 53.8572 2.62321C54.3996 2.67332 54.6891 2.69986 54.6891 2.69986C54.6891 2.69986 54.4026 2.75586 53.8655 2.86021C53.5996 2.90914 53.2718 2.96927 52.8863 3.04002C52.6947 3.07716 52.4889 3.10959 52.2714 3.15734C52.0556 3.2157 51.8269 3.27819 51.5846 3.34363C51.1029 3.47805 50.57 3.61128 50.0011 3.78166C49.4422 4.00097 48.8379 4.21438 48.2006 4.45079C47.5674 4.69958 46.9243 5.0421 46.238 5.35455C45.5595 5.68646 44.8915 6.12803 44.1782 6.5295C43.8321 6.75176 43.4979 7.0088 43.1477 7.2511C42.8075 7.50814 42.432 7.7245 42.1054 8.0234C41.4492 8.61352 40.7146 9.14293 40.0956 9.84331C38.7479 11.1185 37.596 12.7067 36.5372 14.3887C35.4901 16.0924 34.7279 18.009 34.1136 19.9869C33.9933 20.4916 33.873 20.998 33.7522 21.5056L33.662 21.8852L33.6125 22.2561L33.5034 22.9959L33.3878 23.7358C33.3401 23.9704 33.3525 24.2959 33.3312 24.5718L33.2522 26.2991C33.2581 26.0987 33.2546 26.2579 33.2564 26.2195L33.2576 26.2443L33.2599 26.2938L33.2646 26.3923L33.2741 26.5898L33.2923 26.9842L33.3271 27.773C33.3259 28.3012 33.415 28.8194 33.494 29.3376L33.6066 30.1152L33.6579 30.5043L33.7481 30.8852C33.8689 31.3933 33.9898 31.8998 34.11 32.4044C34.7202 34.3841 35.4878 36.2995 36.5319 38.005C37.5913 39.687 38.7432 41.2764 40.0909 42.5521C40.7093 43.2525 41.4457 43.7802 42.1012 44.3721C42.4278 44.671 42.804 44.8873 43.1441 45.1444C43.4943 45.3861 43.8286 45.6443 44.1746 45.8665C44.8886 46.268 45.5565 46.709 46.2351 47.0415C46.9213 47.354 47.5651 47.6953 48.1983 47.9447C48.8361 48.1805 49.4404 48.3945 49.9993 48.6132C50.5629 48.7818 51.0894 48.9145 51.5692 49.0483C51.8104 49.1137 52.0391 49.1756 52.2537 49.2346C52.4736 49.2829 52.6847 49.3153 52.8786 49.3525C53.2677 49.4232 53.5979 49.4834 53.8661 49.5323C54.4032 49.6378 54.6885 49.6938 54.6885 49.6938Z" fill="#263238"/>
<path d="M65.3981 57.8058C65.3981 57.8058 65.5514 57.7186 65.8391 57.5541C66.1174 57.3878 66.5796 57.185 67.0636 56.8472C67.3112 56.6839 67.5818 56.5136 67.866 56.3167C68.1419 56.0891 68.4455 55.8651 68.7597 55.6204C69.0698 55.3687 69.3734 55.068 69.7006 54.7768C70.0207 54.4755 70.3208 54.1188 70.6474 53.7787C70.9416 53.402 71.2599 53.0288 71.5482 52.6149C71.8129 52.181 72.1366 51.7801 72.3641 51.2967C72.9047 50.3894 73.2885 49.3454 73.6199 48.2783C73.9376 47.1982 74.0774 46.0522 74.1398 44.8979C74.1599 43.7376 74.0261 42.5686 73.7749 41.4202L73.5208 40.5294C73.4725 40.3761 73.4312 40.1721 73.3776 40.0613L73.2249 39.691C73.1111 39.4417 73.0586 39.2006 72.9142 38.9358L72.5328 38.1523C71.9538 37.1525 71.3183 36.1892 70.546 35.3703C69.7702 34.5668 68.9572 33.8074 68.067 33.2415C67.6461 32.9125 67.178 32.6985 66.7458 32.4315C66.3025 32.1921 65.8509 32.0005 65.4182 31.7977C64.9737 31.6409 64.5457 31.4563 64.1242 31.332C63.7009 31.2188 63.2947 31.0861 62.905 31.0012C62.5141 30.9234 62.1421 30.8609 61.7937 30.7813C61.4459 30.7336 61.1216 30.7035 60.8251 30.6693C60.2302 30.5874 59.7586 30.608 59.4291 30.5856C59.0971 30.5685 58.9203 30.5591 58.9203 30.5591C58.9203 30.5591 59.0812 30.4871 59.3825 30.3527C59.5369 30.2885 59.7268 30.2089 59.9502 30.1151C60.0634 30.0703 60.1843 30.0132 60.3163 29.9684C60.4501 29.9318 60.5928 29.8935 60.7437 29.8528C61.0468 29.7732 61.3852 29.6759 61.7601 29.5869C62.1362 29.5203 62.5483 29.472 62.9946 29.4095C63.4409 29.357 63.916 29.3759 64.4272 29.3582C64.9365 29.3564 65.4642 29.4395 66.0295 29.4855C66.5814 29.5828 67.1621 29.6983 67.7545 29.8563C68.3341 30.0479 68.9543 30.2213 69.545 30.5084C70.7641 31.013 71.9456 31.7877 73.0675 32.7174C73.3369 32.962 73.614 33.2061 73.8822 33.4637C74.1499 33.7214 74.3833 34.0155 74.6374 34.2956L75.0118 34.7242L75.349 35.1864C75.5636 35.503 75.7982 35.8107 75.9957 36.1432C76.373 36.817 76.7745 37.4773 77.0669 38.2844L77.3004 38.8663C77.3853 39.0697 77.4094 39.2059 77.4666 39.3786L77.7897 40.4663C78.111 42.0062 78.2666 43.5879 78.131 45.1349C78.1033 45.5204 78.0355 45.9013 77.9825 46.2797L77.8893 46.8439L77.7478 47.3952C77.647 47.7595 77.5716 48.1268 77.4483 48.4775C77.3163 48.8242 77.1854 49.1685 77.0557 49.5098C76.4726 50.8445 75.7658 52.0672 74.9045 53.0659C74.506 53.5877 74.0319 54.0228 73.5992 54.4531C73.1417 54.8605 72.676 55.226 72.2268 55.5603C71.7428 55.8556 71.3101 56.1687 70.8543 56.3957C70.3904 56.6102 69.9747 56.8419 69.5526 56.9952C69.1264 57.1414 68.7367 57.2829 68.3712 57.3932C67.9909 57.4851 67.6396 57.5529 67.3312 57.6189C67.178 57.6502 67.0324 57.6803 66.8956 57.7086C66.7594 57.7262 66.6309 57.7292 66.5118 57.7392C66.2736 57.7557 66.0702 57.7699 65.9063 57.7811C65.5744 57.7976 65.3981 57.8058 65.3981 57.8058Z" fill="#263238"/>
<path d="M35.5205 101.061C46.6181 101.061 55.6144 92.065 55.6144 80.9674C55.6144 69.8699 46.6181 60.8735 35.5205 60.8735C24.423 60.8735 15.4266 69.8699 15.4266 80.9674C15.4266 92.065 24.423 101.061 35.5205 101.061Z" fill="url(#paint1_linear_173_155)"/>
<path d="M93.4789 101.061C104.576 101.061 113.573 92.065 113.573 80.9674C113.573 69.8699 104.576 60.8735 93.4789 60.8735C82.3813 60.8735 73.385 69.8699 73.385 80.9674C73.385 92.065 82.3813 101.061 93.4789 101.061Z" fill="url(#paint2_linear_173_155)"/>
<path d="M35.5209 55.4341C21.4191 55.4341 9.98792 66.8658 9.98792 80.967C9.98792 95.0688 21.4197 106.5 35.5209 106.5C49.6227 106.5 61.0538 95.0682 61.0538 80.967C61.0538 66.8658 49.6221 55.4341 35.5209 55.4341ZM35.5209 98.8366C25.652 98.8366 17.6519 90.8365 17.6519 80.9676C17.6519 71.0987 25.652 63.0987 35.5209 63.0987C45.3898 63.0987 53.3898 71.0987 53.3898 80.9676C53.3898 90.8365 45.3898 98.8366 35.5209 98.8366Z" fill="#263238"/>
<path d="M93.4779 55.4341C79.3761 55.4341 67.9449 66.8658 67.9449 80.967C67.9449 95.0688 79.3767 106.5 93.4779 106.5C107.58 106.5 119.011 95.0682 119.011 80.967C119.011 66.8658 107.58 55.4341 93.4779 55.4341ZM93.4779 98.8366C83.609 98.8366 75.609 90.8365 75.609 80.9676C75.609 71.0987 83.609 63.0987 93.4779 63.0987C103.347 63.0987 111.347 71.0987 111.347 80.9676C111.347 90.8365 103.347 98.8366 93.4779 98.8366Z" fill="#263238"/>
<path d="M73.6375 70.2885C70.8066 68.8583 67.7262 68.0642 64.4997 68.0642C61.2731 68.0642 58.1928 68.8583 55.3618 70.2885" stroke="#263238" stroke-width="5.42228" stroke-miterlimit="10"/>
<path d="M122.061 75.4805H114.308V68.9956H122.229C123.973 68.9956 125.388 70.4099 125.388 72.1544C125.388 73.9914 123.898 75.4805 122.061 75.4805Z" fill="#263238"/>
<path d="M14.5223 75.4805H6.93666C5.09965 75.4805 3.61047 73.9914 3.61047 72.1544C3.61047 70.4099 5.02478 68.9956 6.76923 68.9956H14.5223C14.6148 68.9956 14.6897 69.0705 14.6897 69.163V75.3125C14.6903 75.4057 14.6148 75.4805 14.5223 75.4805Z" fill="#263238"/>
<path d="M36.2852 87.7698C35.8619 87.7698 35.4563 87.8441 35.0772 87.9749C35.6166 88.2615 35.9886 88.8227 35.9886 89.4765C35.9886 90.4192 35.2246 91.1832 34.2819 91.1832C33.6281 91.1832 33.0675 90.8118 32.7804 90.2718C32.6495 90.6509 32.5752 91.0565 32.5752 91.4797C32.5752 93.5284 34.2359 95.1897 36.2852 95.1897C38.3338 95.1897 39.9952 93.529 39.9952 91.4797C39.9952 89.4305 38.3338 87.7698 36.2852 87.7698Z" fill="#263238"/>
<path d="M94.9443 87.7698C94.5211 87.7698 94.1155 87.8441 93.7364 87.9749C94.2758 88.2615 94.6478 88.8227 94.6478 89.4765C94.6478 90.4192 93.8838 91.1832 92.9411 91.1832C92.2873 91.1832 91.7267 90.8118 91.4395 90.2718C91.3087 90.6509 91.2344 91.0565 91.2344 91.4797C91.2344 93.5284 92.8951 95.1897 94.9443 95.1897C96.993 95.1897 98.6543 93.529 98.6543 91.4797C98.6543 89.4305 96.993 87.7698 94.9443 87.7698Z" fill="#263238"/>
<path d="M25.0004 72.9607C25.0004 72.9607 25.0373 72.8765 25.1064 72.7183C25.1823 72.5673 25.2785 72.331 25.4306 72.0599C25.5046 71.9224 25.5863 71.7696 25.6752 71.6032C25.7804 71.4408 25.9098 71.2769 26.0447 71.0931C26.3181 70.7272 26.6511 70.3105 27.0591 69.9422C27.2596 69.7471 27.4764 69.5519 27.7028 69.3473C27.9421 69.1643 28.1995 68.9878 28.4632 68.7986C28.9842 68.4037 29.6091 68.1256 30.247 67.7998C30.9101 67.5526 31.6005 67.2623 32.3415 67.1292C33.0716 66.9302 33.839 66.8906 34.6016 66.819C35.3672 66.8407 36.1363 66.8277 36.8778 66.9787C37.6266 67.0589 38.3338 67.3086 39.0127 67.5092C39.6701 67.793 40.3126 68.029 40.8583 68.3891C41.1342 68.5611 41.4022 68.7217 41.6532 68.8874C41.8926 69.0769 42.1217 69.2592 42.3344 69.4399C42.7707 69.7848 43.114 70.1694 43.4055 70.5119C43.5496 70.6849 43.6881 70.8381 43.8036 70.9932C43.9087 71.1579 44.0058 71.3094 44.0929 71.4459C44.2684 71.7129 44.3806 71.9433 44.465 72.0886C44.5422 72.2408 44.5832 72.322 44.5832 72.322C44.5832 72.322 44.4947 72.2932 44.3286 72.2394C44.1698 72.1787 43.9251 72.1079 43.6468 71.9902C43.507 71.9351 43.3515 71.8742 43.1825 71.808C43.002 71.7601 42.8209 71.6939 42.6237 71.6327C42.2345 71.5024 41.816 71.3429 41.3377 71.2309C41.1081 71.1637 40.8698 71.0939 40.6226 71.0215C40.3735 70.9675 40.1156 70.9117 39.8505 70.854C39.3405 70.7034 38.7705 70.6703 38.2217 70.5447C37.6498 70.5033 37.0812 70.398 36.4903 70.3881C35.905 70.335 35.3103 70.3611 34.7169 70.353C34.1257 70.3994 33.53 70.4092 32.9491 70.5007C32.3596 70.5463 31.8 70.6926 31.2307 70.7683C30.6912 70.9294 30.1241 70.9992 29.625 71.1827C29.3672 71.2562 29.1174 71.3357 28.866 71.4006C28.624 71.489 28.3903 71.5746 28.1657 71.6566C27.6908 71.8039 27.2987 71.9794 26.924 72.1301C26.7337 72.2022 26.558 72.2776 26.3815 72.3376C26.2123 72.4198 26.0567 72.4954 25.9159 72.5638C25.6394 72.7055 25.3999 72.7938 25.2462 72.8639C25.0852 72.9271 25.0004 72.9607 25.0004 72.9607Z" fill="#263238"/>
<path d="M84.2438 72.5826C84.2438 72.5826 84.2849 72.5004 84.3619 72.3458C84.4453 72.1989 84.5533 71.9677 84.7189 71.7047C84.7996 71.571 84.889 71.4225 84.9861 71.2608C85.0994 71.104 85.2368 70.9467 85.3809 70.77C85.6727 70.4187 86.0259 70.0189 86.4519 69.6716C86.662 69.4869 86.8883 69.3029 87.1248 69.1099C87.373 68.9391 87.6389 68.7759 87.9118 68.6002C88.452 68.232 89.0901 67.9857 89.7437 67.6925C90.4183 67.4789 91.1225 67.2237 91.8692 67.1282C92.6084 66.9662 93.3768 66.9652 94.142 66.9321C94.9056 66.9924 95.6744 67.0181 96.4074 67.2062C97.1512 67.3241 97.8449 67.6091 98.5128 67.8436C99.1551 68.1602 99.785 68.4282 100.312 68.8152C100.579 69.0009 100.838 69.1748 101.081 69.353C101.311 69.5547 101.53 69.7479 101.733 69.9391C102.151 70.3055 102.475 70.7069 102.749 71.0637C102.884 71.2437 103.015 71.4036 103.122 71.5644C103.219 71.7341 103.308 71.8899 103.388 72.031C103.55 72.3066 103.651 72.5423 103.728 72.6921C103.797 72.848 103.834 72.9312 103.834 72.9312C103.834 72.9312 103.747 72.898 103.584 72.8359C103.429 72.7672 103.188 72.6842 102.916 72.5526C102.779 72.4905 102.627 72.4219 102.461 72.3473C102.283 72.2904 102.106 72.2151 101.912 72.1441C101.53 71.9943 101.12 71.814 100.648 71.678C100.422 71.5994 100.187 71.5177 99.9443 71.4329C99.6982 71.3664 99.4434 71.2977 99.1816 71.2267C98.6798 71.0506 98.1122 70.9889 97.5704 70.8358C97.0013 70.7657 96.4387 70.6319 95.849 70.5922C95.2672 70.5098 94.6719 70.5059 94.0797 70.4678C93.487 70.4844 92.8915 70.4643 92.3067 70.5264C91.7156 70.5422 91.1494 70.6602 90.577 70.7071C90.0301 70.8408 89.4602 70.882 88.9525 71.0402C88.6913 71.1006 88.4379 71.1674 88.183 71.2191C87.9369 71.2952 87.6992 71.369 87.4708 71.4396C86.9891 71.5628 86.5886 71.7183 86.2068 71.8499C86.0131 71.9123 85.8339 71.9788 85.6545 72.0298C85.4814 72.1035 85.3222 72.1711 85.1781 72.2323C84.8953 72.3603 84.6513 72.436 84.4942 72.4983C84.3302 72.5533 84.2438 72.5826 84.2438 72.5826Z" fill="#263238"/>
<path d="M24.148 82.1472L25.7372 76.995H27.8263L29.4027 82.1472L31.1841 76.995H33.3501L30.2229 85.9536H28.7362L26.7753 79.7249L24.8272 85.9536H23.3406L20.2134 76.995H22.3793L24.148 82.1472ZM39.9704 76.995H41.9697V85.9536H39.9704V82.4291H36.4075V85.9536H34.4081V76.995H36.4075V80.7374H39.9704V76.995ZM48.0282 85.9536H46.0289V82.4163L42.9273 76.995H45.0933L47.0286 80.3273L48.9638 76.995H51.1298L48.0282 82.4163V85.9536Z" fill="black"/>
<path d="M82.8072 82.1472L84.3964 76.995H86.4854L88.0618 82.1472L89.8433 76.995H92.0093L88.8821 85.9536H87.3954L85.4345 79.7249L83.4864 85.9536H81.9997L78.8726 76.995H81.0385L82.8072 82.1472ZM98.6296 76.995H100.629V85.9536H98.6296V82.4291H95.0666V85.9536H93.0673V76.995H95.0666V80.7374H98.6296V76.995ZM106.687 85.9536H104.688V82.4163L101.587 76.995H103.752L105.688 80.3273L107.623 76.995H109.789L106.687 82.4163V85.9536Z" fill="black"/>
<path d="M170.788 31.4531C170.611 31.8802 170.403 32.4062 170.163 33.0312C169.986 33.6354 169.7 34.5312 169.304 35.7188C168.71 37.25 167.767 39.4792 166.476 42.4062C165.153 45.3854 164.205 47.6094 163.632 49.0781C163.205 50.1719 162.804 51.0469 162.429 51.7031C161.939 52.5677 161.194 53 160.194 53C159.601 53 159.064 52.8385 158.585 52.5156C158.022 52.1406 157.72 51.6458 157.679 51.0312C157.2 49.8333 156.897 48.8542 156.772 48.0938C156.314 45.8646 155.679 42.5156 154.866 38.0469C154.189 40.1406 153.46 42.0208 152.679 43.6875C151.512 46.1875 150.746 48.151 150.382 49.5781C150.476 49.8073 150.522 50.0521 150.522 50.3125C150.522 50.9583 150.236 51.4844 149.663 51.8906C149.163 52.2344 148.611 52.4062 148.007 52.4062C147.246 52.4062 146.616 52.2135 146.116 51.8281C145.575 51.401 145.293 50.8177 145.272 50.0781L144.788 48.25C144.444 46.625 143.882 44.1979 143.101 40.9688C142.413 38.5 141.262 34.9844 139.647 30.4219C139.554 30.1615 139.507 29.901 139.507 29.6406C139.507 29.0156 139.746 28.5208 140.226 28.1562C140.653 27.8229 141.168 27.6562 141.772 27.6562C142.564 27.6562 143.194 27.9896 143.663 28.6562C143.924 29.0208 144.22 29.6823 144.554 30.6406C145.575 33.5781 146.726 37.8594 148.007 43.4844C148.84 41.4531 149.689 39.0573 150.554 36.2969C151.252 34.0469 151.819 32.4479 152.257 31.5C153.299 29.2292 154.361 28.0938 155.444 28.0938C156.465 28.0938 157.21 28.651 157.679 29.7656C157.908 30.2969 158.132 31.2604 158.351 32.6562C158.413 33.0833 158.549 34.1302 158.757 35.7969C158.976 37.5885 159.632 40.849 160.726 45.5781C161.83 42.9948 163.314 39.2708 165.179 34.4062C165.293 34.1146 165.564 33.1562 165.991 31.5312C166.293 30.3646 166.674 29.4427 167.132 28.7656C167.632 28.0365 168.299 27.6719 169.132 27.6719C169.767 27.6719 170.293 27.8698 170.71 28.2656C171.127 28.651 171.335 29.151 171.335 29.7656C171.335 29.9844 171.153 30.5469 170.788 31.4531ZM195.46 29.8281C195.252 30.5885 195.147 31.25 195.147 31.8125C195.147 32.1042 195.116 32.5573 195.054 33.1719C195.002 33.776 194.976 34.224 194.976 34.5156C194.976 35.5052 194.924 36.974 194.819 38.9219C194.715 40.8698 194.663 42.3385 194.663 43.3281C194.663 44.0885 194.72 45.224 194.835 46.7344C194.95 48.2448 195.007 49.3802 195.007 50.1406C195.007 50.7135 194.804 51.1979 194.397 51.5938C193.991 51.9896 193.486 52.1875 192.882 52.1875C192.267 52.1875 191.736 51.9896 191.288 51.5938C190.84 51.2083 190.616 50.7344 190.616 50.1719C190.616 49.4115 190.58 48.2708 190.507 46.75C190.444 45.2292 190.413 44.0885 190.413 43.3281C190.413 42.7344 190.424 42.2083 190.444 41.75C188.809 41.8229 186.788 42.0781 184.382 42.5156C182.382 42.8802 180.382 43.25 178.382 43.625C178.361 44.3333 178.288 45.5156 178.163 47.1719C178.059 48.6302 178.007 49.8229 178.007 50.75C178.007 51.3229 177.804 51.8073 177.397 52.2031C176.991 52.599 176.486 52.7969 175.882 52.7969C175.278 52.7969 174.772 52.599 174.366 52.2031C173.96 51.8073 173.757 51.3229 173.757 50.75C173.757 49.6979 173.845 48.125 174.022 46.0312C174.21 43.9375 174.304 42.3646 174.304 41.3125C174.304 39.9792 174.335 37.974 174.397 35.2969C174.46 32.6094 174.491 30.599 174.491 29.2656C174.491 28.6927 174.694 28.2083 175.101 27.8125C175.507 27.4167 176.012 27.2188 176.616 27.2188C177.22 27.2188 177.726 27.4167 178.132 27.8125C178.538 28.2083 178.741 28.6927 178.741 29.2656C178.741 30.0573 178.71 31.25 178.647 32.8438C178.595 34.4271 178.569 35.6146 178.569 36.4062C178.569 36.6667 178.533 37.1667 178.46 37.9062C178.397 38.5938 178.371 39.1198 178.382 39.4844L184.382 38.3594C186.726 37.9427 188.746 37.7031 190.444 37.6406C190.486 36.9427 190.554 35.0677 190.647 32.0156C190.668 31.2135 190.913 30.2917 191.382 29.25C191.965 27.9688 192.627 27.3281 193.366 27.3281C193.918 27.3281 194.408 27.5104 194.835 27.875C195.293 28.2708 195.522 28.7656 195.522 29.3594C195.522 29.5156 195.502 29.6719 195.46 29.8281ZM215.46 32.2188C214.929 33.3125 213.861 35.6771 212.257 39.3125C210.924 42.3542 209.788 44.7396 208.851 46.4688C207.226 49.4688 206.356 51.0573 206.241 51.2344C205.627 52.1406 204.918 52.5938 204.116 52.5938C203.543 52.5938 203.038 52.4062 202.601 52.0312C202.121 51.6146 201.882 51.099 201.882 50.4844C201.882 49.974 202.97 47.8281 205.147 44.0469C204.345 42.8906 203.194 41.1354 201.694 38.7812C200.569 37.0521 198.918 34.4427 196.741 30.9531C196.533 30.599 196.429 30.2292 196.429 29.8438C196.429 29.2396 196.663 28.7292 197.132 28.3125C197.569 27.9271 198.08 27.7344 198.663 27.7344C199.351 27.7344 199.976 28.0833 200.538 28.7812L201.71 30.6562C201.783 30.7812 202.679 32.3021 204.397 35.2188C205.481 37.0833 206.439 38.5573 207.272 39.6406C208.064 38.0469 209.205 35.6354 210.694 32.4062C211.007 31.6875 211.476 30.599 212.101 29.1406C212.496 28.2031 213.174 27.7344 214.132 27.7344C214.705 27.7344 215.21 27.9219 215.647 28.2969C216.127 28.7031 216.366 29.2135 216.366 29.8281C216.366 30.1823 216.064 30.9792 215.46 32.2188ZM147.647 84.4531C145.002 84.4531 142.918 83.8646 141.397 82.6875C140.116 81.7083 139.476 80.5781 139.476 79.2969C139.476 78.6406 139.674 78.099 140.069 77.6719C140.465 77.2344 141.012 77.0156 141.71 77.0156C142.647 77.0156 143.335 77.4948 143.772 78.4531C144.366 79.7344 145.71 80.375 147.804 80.375C149.595 80.375 151.33 79.9844 153.007 79.2031C154.746 78.401 155.616 77.5208 155.616 76.5625C155.616 75.25 155.075 74.3854 153.991 73.9688C153.22 73.6667 151.674 73.4896 149.351 73.4375C147.549 73.3958 145.934 73.0573 144.507 72.4219C142.58 71.5573 141.632 70.3177 141.663 68.7031C141.694 66.6719 142.778 64.8125 144.913 63.125C147.049 61.4271 149.403 60.5781 151.976 60.5781C152.996 60.5781 154.257 60.8125 155.757 61.2812C157.621 61.8646 158.554 62.5365 158.554 63.2969C158.554 63.8385 158.366 64.3177 157.991 64.7344C157.575 65.2031 157.038 65.4375 156.382 65.4375C155.892 65.4375 155.158 65.3333 154.179 65.125C153.21 64.9167 152.476 64.8125 151.976 64.8125C150.632 64.8229 149.356 65.1458 148.147 65.7812C146.897 66.4271 146.272 67.1302 146.272 67.8906C146.272 68.2865 146.46 68.6146 146.835 68.875C147.22 69.125 147.793 69.3021 148.554 69.4062C149.887 69.4792 151.215 69.5521 152.538 69.625C154.851 69.8021 156.679 70.4531 158.022 71.5781C159.502 72.8281 160.241 74.5573 160.241 76.7656C160.241 79.4531 158.71 81.4896 155.647 82.875C153.314 83.9271 150.647 84.4531 147.647 84.4531ZM169.694 84.4844C167.403 84.4844 165.481 83.8333 163.929 82.5312C162.293 81.1562 161.476 79.3438 161.476 77.0938C161.476 75.0208 162.21 72.8802 163.679 70.6719C165.345 68.151 167.283 66.8906 169.491 66.8906C170.575 66.8906 171.84 67.1823 173.288 67.7656C175.049 68.4844 175.929 69.3125 175.929 70.25C175.929 70.7604 175.752 71.2135 175.397 71.6094C175.022 72.0365 174.538 72.25 173.944 72.25C173.496 72.25 172.955 72.0104 172.319 71.5312C171.694 71.0417 170.752 70.7969 169.491 70.7969C168.689 70.7969 167.819 71.5833 166.882 73.1562C165.986 74.6771 165.538 75.9896 165.538 77.0938C165.538 78.1875 165.934 79.0469 166.726 79.6719C167.476 80.2656 168.465 80.5625 169.694 80.5625C170.392 80.5625 171.246 80.2969 172.257 79.7656C173.267 79.2344 173.908 78.9688 174.179 78.9688C174.741 78.9688 175.22 79.1719 175.616 79.5781C176.022 79.9844 176.226 80.4479 176.226 80.9688C176.226 81.7812 175.34 82.5938 173.569 83.4062C171.986 84.125 170.694 84.4844 169.694 84.4844ZM182.507 64.7188C181.84 64.7188 181.262 64.4948 180.772 64.0469C180.283 63.599 180.038 63.0521 180.038 62.4062C180.038 61.7604 180.283 61.2135 180.772 60.7656C181.262 60.3177 181.84 60.0938 182.507 60.0938C183.174 60.0938 183.746 60.3177 184.226 60.7656C184.715 61.2135 184.96 61.7604 184.96 62.4062C184.96 63.0521 184.715 63.599 184.226 64.0469C183.746 64.4948 183.174 64.7188 182.507 64.7188ZM183.835 76.1719C183.835 76.7656 183.851 77.7188 183.882 79.0312C183.924 80.3438 183.944 81.2969 183.944 81.8906C183.944 82.4948 183.741 82.9948 183.335 83.3906C182.929 83.776 182.413 83.9688 181.788 83.9688C181.163 83.9688 180.647 83.776 180.241 83.3906C179.835 82.9948 179.632 82.4948 179.632 81.8906C179.632 81.2969 179.611 80.3438 179.569 79.0312C179.538 77.7188 179.522 76.7656 179.522 76.1719C179.522 75.2448 179.575 74.0833 179.679 72.6875C179.783 71.2917 179.835 70.1302 179.835 69.2031C179.835 68.599 180.038 68.1042 180.444 67.7188C180.851 67.3229 181.366 67.125 181.991 67.125C182.616 67.125 183.132 67.3229 183.538 67.7188C183.944 68.1042 184.147 68.599 184.147 69.2031C184.147 70.1302 184.095 71.2917 183.991 72.6875C183.887 74.0833 183.835 75.2448 183.835 76.1719ZM195.788 84.2188C193.299 84.2188 191.262 83.625 189.679 82.4375C187.929 81.125 187.054 79.276 187.054 76.8906C187.054 74.2552 187.746 72.026 189.132 70.2031C190.674 68.1823 192.752 67.1719 195.366 67.1719C197.179 67.1719 198.684 67.4635 199.882 68.0469C201.455 68.8177 202.241 70.0156 202.241 71.6406C202.241 72.7865 201.601 73.8021 200.319 74.6875C199.736 75.0938 198.564 75.6875 196.804 76.4688L191.538 78.7969C192.038 79.3385 192.642 79.7448 193.351 80.0156C194.059 80.2865 194.871 80.4219 195.788 80.4219C197.184 80.4219 198.366 80.1354 199.335 79.5625C200.2 79.0521 200.892 78.7969 201.413 78.7969C202.496 78.7969 203.038 79.3229 203.038 80.375C203.038 81.5625 202.168 82.5312 200.429 83.2812C198.97 83.9062 197.424 84.2188 195.788 84.2188ZM195.366 70.9531C194.397 70.9531 193.569 71.276 192.882 71.9219C192.194 72.5677 191.642 73.5365 191.226 74.8281C192.403 74.3177 193.575 73.8125 194.741 73.3125C196.147 72.6771 197.267 72.0885 198.101 71.5469C197.403 71.151 196.491 70.9531 195.366 70.9531ZM218.132 84.6094C216.851 84.6094 216.137 83.9792 215.991 82.7188C215.845 81.6458 215.7 80.5677 215.554 79.4844C215.397 78.3385 215.319 77.2604 215.319 76.25C215.319 75.9792 215.335 75.5156 215.366 74.8594C215.408 74.2031 215.429 73.7396 215.429 73.4688C215.429 73.3958 215.439 73.2135 215.46 72.9219C215.481 72.6198 215.491 72.375 215.491 72.1875C215.491 71.3229 215.267 70.8906 214.819 70.8906C213.861 70.8906 212.918 71.4531 211.991 72.5781C211.075 73.6927 210.356 75.1094 209.835 76.8281C209.814 77.1719 209.767 77.6302 209.694 78.2031C209.632 78.6719 209.601 79.1302 209.601 79.5781C209.601 79.8698 209.632 80.3125 209.694 80.9062C209.767 81.4896 209.804 81.9271 209.804 82.2188C209.804 82.8125 209.595 83.3021 209.179 83.6875C208.772 84.0833 208.257 84.2812 207.632 84.2812C207.007 84.2812 206.491 84.0833 206.085 83.6875C205.679 83.3021 205.476 82.8125 205.476 82.2188C205.476 81.9271 205.444 81.4896 205.382 80.9062C205.319 80.3125 205.288 79.8698 205.288 79.5781C205.288 78.5781 205.361 77.1875 205.507 75.4062C205.653 73.625 205.726 72.2344 205.726 71.2344C205.726 70.9219 205.705 70.4583 205.663 69.8438C205.632 69.2188 205.616 68.7552 205.616 68.4531C205.616 67.8698 205.825 67.3906 206.241 67.0156C206.668 66.6302 207.189 66.4375 207.804 66.4375C209.168 66.4375 209.897 67.2552 209.991 68.8906L210.007 69.0625C211.528 67.5312 213.132 66.7656 214.819 66.7656C216.788 66.7656 218.147 67.5885 218.897 69.2344C219.397 70.3385 219.647 71.9896 219.647 74.1875V75.2969C219.637 75.776 219.632 76.1146 219.632 76.3125C219.632 77.125 219.741 78.1719 219.96 79.4531C220.189 80.7344 220.304 81.776 220.304 82.5781C220.304 83.1615 220.095 83.6458 219.679 84.0312C219.262 84.4167 218.746 84.6094 218.132 84.6094ZM233.601 70.9219C233.382 70.9219 233.121 70.9167 232.819 70.9062C232.528 70.8854 232.272 70.875 232.054 70.875C231.627 70.875 231.132 70.9167 230.569 71C230.757 75.2083 230.851 77.9583 230.851 79.25C230.851 79.3854 230.856 79.6406 230.866 80.0156C230.877 80.3802 230.882 80.6771 230.882 80.9062C230.882 83.3021 230.127 84.5 228.616 84.5C228.043 84.5 227.549 84.3229 227.132 83.9688C226.674 83.5938 226.444 83.125 226.444 82.5625C226.444 82.1875 226.46 81.625 226.491 80.875C226.522 80.125 226.538 79.5625 226.538 79.1875C226.538 77.9271 226.444 75.2292 226.257 71.0938C225.611 71.0625 224.632 70.9792 223.319 70.8438C222.017 70.6979 221.366 70.0208 221.366 68.8125C221.366 68.2292 221.564 67.7344 221.96 67.3281C222.356 66.9219 222.866 66.7188 223.491 66.7188C223.877 66.7188 224.762 66.7812 226.147 66.9062C226.137 66.5729 226.111 66.0208 226.069 65.25C226.028 64.5833 226.007 64.0677 226.007 63.7031C226.007 63.1198 226.22 62.6354 226.647 62.25C227.075 61.8646 227.59 61.6719 228.194 61.6719C229.736 61.6719 230.507 62.9688 230.507 65.5625L230.476 66.8438C231.121 66.75 231.647 66.7031 232.054 66.7031C233.252 66.7031 234.069 66.7812 234.507 66.9375C235.34 67.2292 235.757 67.8646 235.757 68.8438C235.757 69.4375 235.554 69.9323 235.147 70.3281C234.741 70.724 234.226 70.9219 233.601 70.9219ZM241.226 64.7188C240.559 64.7188 239.981 64.4948 239.491 64.0469C239.002 63.599 238.757 63.0521 238.757 62.4062C238.757 61.7604 239.002 61.2135 239.491 60.7656C239.981 60.3177 240.559 60.0938 241.226 60.0938C241.892 60.0938 242.465 60.3177 242.944 60.7656C243.434 61.2135 243.679 61.7604 243.679 62.4062C243.679 63.0521 243.434 63.599 242.944 64.0469C242.465 64.4948 241.892 64.7188 241.226 64.7188ZM242.554 76.1719C242.554 76.7656 242.569 77.7188 242.601 79.0312C242.642 80.3438 242.663 81.2969 242.663 81.8906C242.663 82.4948 242.46 82.9948 242.054 83.3906C241.647 83.776 241.132 83.9688 240.507 83.9688C239.882 83.9688 239.366 83.776 238.96 83.3906C238.554 82.9948 238.351 82.4948 238.351 81.8906C238.351 81.2969 238.33 80.3438 238.288 79.0312C238.257 77.7188 238.241 76.7656 238.241 76.1719C238.241 75.2448 238.293 74.0833 238.397 72.6875C238.502 71.2917 238.554 70.1302 238.554 69.2031C238.554 68.599 238.757 68.1042 239.163 67.7188C239.569 67.3229 240.085 67.125 240.71 67.125C241.335 67.125 241.851 67.3229 242.257 67.7188C242.663 68.1042 242.866 68.599 242.866 69.2031C242.866 70.1302 242.814 71.2917 242.71 72.6875C242.606 74.0833 242.554 75.2448 242.554 76.1719ZM254.054 67.4531C255.45 67.3281 256.45 67.2656 257.054 67.2656C259.002 67.2656 259.976 67.9323 259.976 69.2656C259.976 70.6406 258.939 71.2969 256.866 71.2344C256.21 71.2135 255.215 71.2604 253.882 71.375C253.84 72.4792 253.83 73.8854 253.851 75.5938C253.892 78.0521 253.913 79.4531 253.913 79.7969C253.913 81.7031 253.793 83.2135 253.554 84.3281C253.314 85.4427 252.627 86 251.491 86C250.908 86 250.397 85.8125 249.96 85.4375C249.533 85.0625 249.319 84.5885 249.319 84.0156C249.319 83.8802 249.33 83.75 249.351 83.625C249.601 82.1354 249.726 80.7344 249.726 79.4219V71.6094C249.538 71.6198 249.194 71.6615 248.694 71.7344C248.299 71.7865 247.996 71.8125 247.788 71.8125C247.153 71.8125 246.627 71.6302 246.21 71.2656C245.793 70.8906 245.585 70.3906 245.585 69.7656C245.585 68.7969 246.095 68.1615 247.116 67.8594C247.575 67.724 248.486 67.6354 249.851 67.5938C249.861 67.4062 249.929 66.8177 250.054 65.8281C250.345 63.5052 250.976 61.776 251.944 60.6406C253.153 59.224 255.007 58.5156 257.507 58.5156C259.413 58.5156 260.366 59.1979 260.366 60.5625C260.366 61.9167 259.481 62.5938 257.71 62.5938C256.45 62.5938 255.533 63.0365 254.96 63.9219C254.533 64.5781 254.246 65.6042 254.101 67L254.054 67.4531ZM266.476 64.7188C265.809 64.7188 265.231 64.4948 264.741 64.0469C264.252 63.599 264.007 63.0521 264.007 62.4062C264.007 61.7604 264.252 61.2135 264.741 60.7656C265.231 60.3177 265.809 60.0938 266.476 60.0938C267.142 60.0938 267.715 60.3177 268.194 60.7656C268.684 61.2135 268.929 61.7604 268.929 62.4062C268.929 63.0521 268.684 63.599 268.194 64.0469C267.715 64.4948 267.142 64.7188 266.476 64.7188ZM267.804 76.1719C267.804 76.7656 267.819 77.7188 267.851 79.0312C267.892 80.3438 267.913 81.2969 267.913 81.8906C267.913 82.4948 267.71 82.9948 267.304 83.3906C266.897 83.776 266.382 83.9688 265.757 83.9688C265.132 83.9688 264.616 83.776 264.21 83.3906C263.804 82.9948 263.601 82.4948 263.601 81.8906C263.601 81.2969 263.58 80.3438 263.538 79.0312C263.507 77.7188 263.491 76.7656 263.491 76.1719C263.491 75.2448 263.543 74.0833 263.647 72.6875C263.752 71.2917 263.804 70.1302 263.804 69.2031C263.804 68.599 264.007 68.1042 264.413 67.7188C264.819 67.3229 265.335 67.125 265.96 67.125C266.585 67.125 267.101 67.3229 267.507 67.7188C267.913 68.1042 268.116 68.599 268.116 69.2031C268.116 70.1302 268.064 71.2917 267.96 72.6875C267.856 74.0833 267.804 75.2448 267.804 76.1719ZM279.069 84.4844C276.778 84.4844 274.856 83.8333 273.304 82.5312C271.668 81.1562 270.851 79.3438 270.851 77.0938C270.851 75.0208 271.585 72.8802 273.054 70.6719C274.72 68.151 276.658 66.8906 278.866 66.8906C279.95 66.8906 281.215 67.1823 282.663 67.7656C284.424 68.4844 285.304 69.3125 285.304 70.25C285.304 70.7604 285.127 71.2135 284.772 71.6094C284.397 72.0365 283.913 72.25 283.319 72.25C282.871 72.25 282.33 72.0104 281.694 71.5312C281.069 71.0417 280.127 70.7969 278.866 70.7969C278.064 70.7969 277.194 71.5833 276.257 73.1562C275.361 74.6771 274.913 75.9896 274.913 77.0938C274.913 78.1875 275.309 79.0469 276.101 79.6719C276.851 80.2656 277.84 80.5625 279.069 80.5625C279.767 80.5625 280.621 80.2969 281.632 79.7656C282.642 79.2344 283.283 78.9688 283.554 78.9688C284.116 78.9688 284.595 79.1719 284.991 79.5781C285.397 79.9844 285.601 80.4479 285.601 80.9688C285.601 81.7812 284.715 82.5938 282.944 83.4062C281.361 84.125 280.069 84.4844 279.069 84.4844ZM317.851 66.8594C316.913 66.8594 316.22 66.3646 315.772 65.375C315.564 64.9062 315.356 64.625 315.147 64.5312C314.991 64.4583 314.58 64.4219 313.913 64.4219C312.601 64.4219 311.085 65.4427 309.366 67.4844C306.96 70.3385 305.757 73.0104 305.757 75.5C305.757 76.6354 306.137 77.6094 306.897 78.4219C307.658 79.2344 308.569 79.6406 309.632 79.6406C310.663 79.6406 311.71 79.3698 312.772 78.8281C313.147 78.6302 313.939 78.1198 315.147 77.2969C315.96 76.7552 316.575 76.4844 316.991 76.4844C317.616 76.4844 318.147 76.7135 318.585 77.1719C318.991 77.599 319.194 78.0885 319.194 78.6406C319.194 79.2552 318.924 79.7917 318.382 80.25C315.517 82.6667 312.601 83.875 309.632 83.875C307.288 83.875 305.309 83.0208 303.694 81.3125C302.153 79.6667 301.382 77.7292 301.382 75.5C301.382 72.0104 302.908 68.4479 305.96 64.8125C308.554 61.7292 311.205 60.1875 313.913 60.1875C314.371 60.1875 314.783 60.2031 315.147 60.2344C315.522 60.2656 315.851 60.3125 316.132 60.375C316.59 59.9271 317.142 59.7031 317.788 59.7031C318.851 59.7031 319.507 60.3125 319.757 61.5312C319.934 62.4062 320.022 63.4271 320.022 64.5938C320.022 65.1146 319.871 65.5885 319.569 66.0156C319.174 66.5781 318.601 66.8594 317.851 66.8594ZM328.444 84.4219C326.517 84.4219 324.861 83.7604 323.476 82.4375C321.955 80.9896 321.158 79.0573 321.085 76.6406C321.012 74.3385 321.642 72.2865 322.976 70.4844C324.559 68.3594 326.762 67.2969 329.585 67.2969C331.668 67.2969 333.325 68.1302 334.554 69.7969C335.658 71.2969 336.21 73.1562 336.21 75.375C336.21 77.7917 335.564 79.8542 334.272 81.5625C332.825 83.4688 330.882 84.4219 328.444 84.4219ZM329.382 71.4219C328.101 71.4115 327.09 71.9948 326.351 73.1719C325.726 74.1615 325.413 75.3177 325.413 76.6406C325.413 77.8906 325.767 78.849 326.476 79.5156C327.038 80.0469 327.694 80.3125 328.444 80.3125C329.351 80.3125 330.137 80.0052 330.804 79.3906C331.564 78.6719 331.97 77.6979 332.022 76.4688C332.158 73.1146 331.278 71.4323 329.382 71.4219ZM342.897 69.6719C344.47 67.849 345.96 66.9375 347.366 66.9375C348.97 66.9375 350.147 67.5469 350.897 68.7656C351.533 68.2031 352.236 67.7812 353.007 67.5C353.778 67.2188 354.611 67.0781 355.507 67.0781C357.549 67.0781 358.934 68.0938 359.663 70.125C359.809 70.5417 360.033 71.9531 360.335 74.3594C360.627 76.0469 361.002 78.8594 361.46 82.7969C361.502 83.3906 361.299 83.8802 360.851 84.2656C360.403 84.651 359.877 84.8438 359.272 84.8438C358.075 84.8438 357.371 84.25 357.163 83.0625C356.976 81.9896 356.783 80.474 356.585 78.5156C356.377 76.3698 356.205 74.849 356.069 73.9531C355.788 72.0885 355.429 71.1562 354.991 71.1562C354.752 71.1562 354.205 71.3958 353.351 71.875C352.496 72.3542 351.871 72.7656 351.476 73.1094C351.476 74.2969 351.616 76.0052 351.897 78.2344C352.189 80.5156 352.335 82.224 352.335 83.3594C352.335 83.9531 352.132 84.4479 351.726 84.8438C351.319 85.2396 350.804 85.4375 350.179 85.4375C349.554 85.4375 349.038 85.2396 348.632 84.8438C348.226 84.4479 348.022 83.9531 348.022 83.3594C348.022 82.1719 347.892 80.4271 347.632 78.125C347.382 75.8125 347.257 74.0625 347.257 72.875C347.257 72.2083 347.2 71.6771 347.085 71.2812C345.877 71.9792 344.663 73.1406 343.444 74.7656C343.392 74.8385 343.304 74.9479 343.179 75.0938C343.137 77.1979 343.116 78.849 343.116 80.0469C343.116 80.3385 343.106 80.7344 343.085 81.2344C343.064 81.724 343.054 82.0885 343.054 82.3281C343.054 82.8906 342.825 83.3333 342.366 83.6562C341.95 83.9583 341.434 84.1094 340.819 84.1094C339.934 84.1094 339.335 83.724 339.022 82.9531C338.804 82.4323 338.694 81.6042 338.694 80.4688V74.6562C338.694 74.1354 338.674 73.375 338.632 72.375C338.59 71.3646 338.569 70.599 338.569 70.0781C338.569 69.151 338.736 68.3125 339.069 67.5625C339.476 66.625 340.049 66.1562 340.788 66.1562C341.371 66.1562 341.892 66.3854 342.351 66.8438C342.809 67.2917 343.038 67.7865 343.038 68.3281C343.038 68.1094 342.991 68.5573 342.897 69.6719ZM367.288 64.7188C366.621 64.7188 366.043 64.4948 365.554 64.0469C365.064 63.599 364.819 63.0521 364.819 62.4062C364.819 61.7604 365.064 61.2135 365.554 60.7656C366.043 60.3177 366.621 60.0938 367.288 60.0938C367.955 60.0938 368.528 60.3177 369.007 60.7656C369.496 61.2135 369.741 61.7604 369.741 62.4062C369.741 63.0521 369.496 63.599 369.007 64.0469C368.528 64.4948 367.955 64.7188 367.288 64.7188ZM368.616 76.1719C368.616 76.7656 368.632 77.7188 368.663 79.0312C368.705 80.3438 368.726 81.2969 368.726 81.8906C368.726 82.4948 368.522 82.9948 368.116 83.3906C367.71 83.776 367.194 83.9688 366.569 83.9688C365.944 83.9688 365.429 83.776 365.022 83.3906C364.616 82.9948 364.413 82.4948 364.413 81.8906C364.413 81.2969 364.392 80.3438 364.351 79.0312C364.319 77.7188 364.304 76.7656 364.304 76.1719C364.304 75.2448 364.356 74.0833 364.46 72.6875C364.564 71.2917 364.616 70.1302 364.616 69.2031C364.616 68.599 364.819 68.1042 365.226 67.7188C365.632 67.3229 366.147 67.125 366.772 67.125C367.397 67.125 367.913 67.3229 368.319 67.7188C368.726 68.1042 368.929 68.599 368.929 69.2031C368.929 70.1302 368.877 71.2917 368.772 72.6875C368.668 74.0833 368.616 75.2448 368.616 76.1719ZM379.882 84.4844C377.59 84.4844 375.668 83.8333 374.116 82.5312C372.481 81.1562 371.663 79.3438 371.663 77.0938C371.663 75.0208 372.397 72.8802 373.866 70.6719C375.533 68.151 377.47 66.8906 379.679 66.8906C380.762 66.8906 382.028 67.1823 383.476 67.7656C385.236 68.4844 386.116 69.3125 386.116 70.25C386.116 70.7604 385.939 71.2135 385.585 71.6094C385.21 72.0365 384.726 72.25 384.132 72.25C383.684 72.25 383.142 72.0104 382.507 71.5312C381.882 71.0417 380.939 70.7969 379.679 70.7969C378.877 70.7969 378.007 71.5833 377.069 73.1562C376.174 74.6771 375.726 75.9896 375.726 77.0938C375.726 78.1875 376.121 79.0469 376.913 79.6719C377.663 80.2656 378.653 80.5625 379.882 80.5625C380.58 80.5625 381.434 80.2969 382.444 79.7656C383.455 79.2344 384.095 78.9688 384.366 78.9688C384.929 78.9688 385.408 79.1719 385.804 79.5781C386.21 79.9844 386.413 80.4479 386.413 80.9688C386.413 81.7812 385.528 82.5938 383.757 83.4062C382.174 84.125 380.882 84.4844 379.882 84.4844Z" fill="black"/>
<defs>
<linearGradient id="paint0_linear_173_155" x1="32.7965" y1="15.7212" x2="102.355" y2="85.2795" gradientUnits="userSpaceOnUse">
<stop stop-color="#B4AEFF"/>
<stop offset="1" stop-color="#434CF4"/>
</linearGradient>
<linearGradient id="paint1_linear_173_155" x1="21.3117" y1="66.759" x2="49.7289" y2="95.1764" gradientUnits="userSpaceOnUse">
<stop stop-color="white"/>
<stop offset="1" stop-color="#B0BEC5"/>
</linearGradient>
<linearGradient id="paint2_linear_173_155" x1="79.2704" y1="66.759" x2="107.688" y2="95.1764" gradientUnits="userSpaceOnUse">
<stop stop-color="white"/>
<stop offset="1" stop-color="#B0BEC5"/>
</linearGradient>
</defs>
</svg>
