<svg width="17" height="22" viewBox="0 0 17 22" fill="none" xmlns="http://www.w3.org/2000/svg">
<path d="M11.75 11.5938L15.25 13.0938C15.5208 13.2188 15.7292 13.4167 15.875 13.6875C16 13.9375 16.0312 14.2083 15.9688 14.5L15.2188 18C15.0521 18.625 14.6458 18.9583 14 19C13.8125 19 13.625 19 13.4375 19C13.2917 18.9792 13.1458 18.9688 13 18.9688C10.5625 18.7604 8.36458 18.0208 6.40625 16.75C4.44792 15.4792 2.89583 13.8229 1.75 11.7812C0.604167 9.76042 0.0208333 7.5 0 5C0.0416667 4.35417 0.375 3.94792 1 3.78125L4.5 3.03125C4.79167 2.96875 5.0625 3.01042 5.3125 3.15625C5.58333 3.28125 5.78125 3.47917 5.90625 3.75L7.40625 7.25C7.61458 7.8125 7.48958 8.30208 7.03125 8.71875L5.78125 9.75C6.63542 11.2083 7.79167 12.3646 9.25 13.2188L10.2812 11.9688C10.6979 11.5104 11.1875 11.3854 11.75 11.5938ZM14 18C14.125 18 14.2083 17.9375 14.25 17.8125L15 14.3125C15.0208 14.1667 14.9688 14.0729 14.8438 14.0312L11.3438 12.5312C11.2396 12.4896 11.1458 12.5104 11.0625 12.5938L10.0312 13.875C9.65625 14.25 9.22917 14.3229 8.75 14.0938C7.125 13.1562 5.84375 11.875 4.90625 10.25C4.67708 9.77083 4.75 9.34375 5.125 8.96875L6.40625 7.9375C6.48958 7.85417 6.51042 7.76042 6.46875 7.65625L4.96875 4.15625C4.90625 4.03125 4.8125 3.97917 4.6875 4L1.1875 4.75C1.0625 4.79167 1 4.875 1 5C1.02083 7.41667 1.61458 9.60417 2.78125 11.5625C3.92708 13.5208 5.47917 15.0729 7.4375 16.2188C9.39583 17.3854 11.5833 17.9792 14 18Z" fill="#434CF4"/>
</svg>
