<svg width="45" height="34" viewBox="0 0 45 34" fill="none" xmlns="http://www.w3.org/2000/svg">
<path d="M12.25 33H13C13.875 33 14.5938 32.7188 15.1562 32.1562C15.7188 31.5938 16 30.875 16 30C16 29.125 15.7188 28.4062 15.1562 27.8438C14.5938 27.2812 13.875 27 13 27H12.25C10.75 26.9375 9.5 26.4375 8.5 25.5C7.5625 24.5 7.0625 23.25 7 21.75V21H13C14.6875 20.9375 16.0938 20.3438 17.2188 19.2188C18.3438 18.0938 18.9375 16.6875 19 15V9C18.9375 7.3125 18.3438 5.90625 17.2188 4.78125C16.0938 3.65625 14.6875 3.0625 13 3H7C5.3125 3.0625 3.90625 3.65625 2.78125 4.78125C1.65625 5.90625 1.0625 7.3125 1 9V12V15V21.75C1.0625 24.9375 2.15625 27.5938 4.28125 29.7188C6.40625 31.8438 9.0625 32.9375 12.25 33Z" fill="#FFC446"/>
<path d="M38.25 33H39C39.875 33 40.5938 32.7188 41.1562 32.1562C41.7188 31.5938 42 30.875 42 30C42 29.125 41.7188 28.4062 41.1562 27.8438C40.5938 27.2812 39.875 27 39 27H38.25C36.75 26.9375 35.5 26.4375 34.5 25.5C33.5625 24.5 33.0625 23.25 33 21.75V21H39C40.6875 20.9375 42.0938 20.3438 43.2188 19.2188C44.3438 18.0938 44.9375 16.6875 45 15V9C44.9375 7.3125 44.3438 5.90625 43.2188 4.78125C42.0938 3.65625 40.6875 3.0625 39 3H33C31.3125 3.0625 29.9062 3.65625 28.7812 4.78125C27.6562 5.90625 27.0625 7.3125 27 9V12V15V21.75C27.0625 24.9375 28.1562 27.5938 30.2812 29.7188C32.4062 31.8438 35.0625 32.9375 38.25 33Z" fill="#FFC446"/>
</svg>
