<svg width="16" height="16" viewBox="0 0 16 16" fill="none" xmlns="http://www.w3.org/2000/svg">
<g clip-path="url(#clip0_76_1434)">
<path d="M11.5928 12.0173L11.2834 11.7079L10.9357 11.9736C10.0104 12.6804 8.85494 13.1001 7.6001 13.1001C4.56253 13.1001 2.1001 10.6376 2.1001 7.6001C2.1001 4.56253 4.56253 2.1001 7.6001 2.1001C10.6376 2.1001 13.1001 4.56253 13.1001 7.6001C13.1001 8.85509 12.6804 10.0107 11.9734 10.936L11.7077 11.2837L12.0171 11.5931L14.2119 13.788L14.2119 13.788C14.329 13.9051 14.329 14.0951 14.2119 14.2122C14.0948 14.3294 13.9048 14.3294 13.7877 14.2122L11.5928 12.0173ZM7.6001 2.7001C4.8939 2.7001 2.7001 4.8939 2.7001 7.6001C2.7001 10.3063 4.8939 12.5001 7.6001 12.5001C10.3063 12.5001 12.5001 10.3063 12.5001 7.6001C12.5001 4.8939 10.3063 2.7001 7.6001 2.7001Z" fill="#D44F49" stroke="#D44F49"/>
</g>
<defs>
<clipPath id="clip0_76_1434">
<rect width="16" height="16" fill="white"/>
</clipPath>
</defs>
</svg>
