<svg width="16" height="16" viewBox="0 0 16 16" fill="none" xmlns="http://www.w3.org/2000/svg">
<g clip-path="url(#clip0_76_1147)">
<path d="M11.5928 12.0172L11.2834 11.7078L10.9357 11.9735C10.0104 12.6803 8.85494 13.1 7.6001 13.1C4.56253 13.1 2.1001 10.6375 2.1001 7.6C2.1001 4.56243 4.56253 2.1 7.6001 2.1C10.6376 2.1 13.1001 4.56243 13.1001 7.6C13.1001 8.85499 12.6804 10.0106 11.9734 10.9359L11.7077 11.2836L12.0171 11.593L14.2119 13.7879L14.2119 13.7879C14.329 13.905 14.329 14.095 14.2119 14.2121C14.0948 14.3293 13.9048 14.3293 13.7877 14.2121L11.5928 12.0172ZM7.6001 2.7C4.8939 2.7 2.7001 4.8938 2.7001 7.6C2.7001 10.3062 4.8939 12.5 7.6001 12.5C10.3063 12.5 12.5001 10.3062 12.5001 7.6C12.5001 4.8938 10.3063 2.7 7.6001 2.7Z" fill="black" stroke="black"/>
</g>
<defs>
<clipPath id="clip0_76_1147">
<rect width="16" height="16" fill="white"/>
</clipPath>
</defs>
</svg>
