<svg width="18" height="17" viewBox="0 0 18 17" fill="none" xmlns="http://www.w3.org/2000/svg">
<path d="M9.71875 0.53125L11.3125 5.5H16.25C16.6042 5.52083 16.8438 5.6875 16.9688 6C17.0521 6.33333 16.9688 6.61458 16.7188 6.84375L12.625 10.0312L14.2188 15.0312C14.3021 15.3646 14.2083 15.6458 13.9375 15.875C13.625 16.0625 13.3229 16.0521 13.0312 15.8438L9 12.6875L4.96875 15.8438C4.67708 16.0521 4.375 16.0625 4.0625 15.875C3.79167 15.6458 3.69792 15.3646 3.78125 15.0312L5.375 10.0312L1.28125 6.84375C1.03125 6.61458 0.947917 6.33333 1.03125 6C1.15625 5.6875 1.39583 5.52083 1.75 5.5H6.71875L8.28125 0.53125C8.40625 0.197917 8.64583 0.0208333 9 0C9.35417 0.0208333 9.59375 0.197917 9.71875 0.53125Z" fill="#FFB108"/>
</svg>
