<svg width="12" height="12" viewBox="0 0 12 12" fill="none" xmlns="http://www.w3.org/2000/svg">
<g clip-path="url(#clip0_76_1099)">
<path d="M11.9755 2.286C11.5235 2.482 11.0535 2.61 10.5655 2.67C10.8215 2.518 11.0425 2.325 11.2285 2.091C11.4145 1.857 11.5535 1.596 11.6455 1.308C11.1615 1.592 10.6395 1.79 10.0795 1.902C9.85151 1.658 9.58551 1.468 9.28151 1.332C8.96551 1.192 8.63351 1.122 8.28551 1.122C7.84151 1.122 7.42751 1.234 7.04351 1.458C6.67151 1.674 6.37751 1.968 6.16151 2.34C5.93751 2.724 5.82551 3.138 5.82551 3.582C5.82551 3.77 5.84751 3.958 5.89151 4.146C4.88351 4.098 3.93351 3.844 3.04151 3.384C2.17751 2.936 1.43751 2.334 0.821512 1.578C0.597512 1.954 0.485512 2.368 0.485512 2.82C0.485512 3.24 0.585512 3.632 0.785512 3.996C0.981512 4.352 1.24551 4.642 1.57751 4.866C1.18151 4.854 0.811512 4.752 0.467512 4.56V4.59C0.467512 4.978 0.553512 5.346 0.725512 5.694C0.893512 6.03 1.12851 6.313 1.43051 6.543C1.73251 6.773 2.06951 6.926 2.44151 7.002C2.22951 7.058 2.01351 7.086 1.79351 7.086C1.64151 7.086 1.48751 7.072 1.33151 7.044C1.43951 7.368 1.60651 7.658 1.83251 7.914C2.05851 8.17 2.32351 8.372 2.62751 8.52C2.94751 8.668 3.28351 8.746 3.63551 8.754C3.20751 9.09 2.73751 9.348 2.22551 9.528C1.69751 9.712 1.15151 9.804 0.587512 9.804C0.395512 9.804 0.199512 9.794 -0.000488281 9.774C0.559512 10.13 1.15151 10.4 1.77551 10.584C2.42751 10.78 3.09551 10.878 3.77951 10.878C4.86351 10.878 5.86351 10.666 6.77951 10.242C7.61951 9.854 8.35151 9.306 8.97551 8.598C9.55551 7.938 10.0035 7.188 10.3195 6.348C10.6235 5.532 10.7755 4.71 10.7755 3.882C10.7755 3.742 10.7735 3.638 10.7695 3.57C11.2535 3.222 11.6635 2.796 11.9995 2.292L11.9755 2.286Z" fill="white"/>
</g>
<defs>
<clipPath id="clip0_76_1099">
<rect width="12" height="12" fill="white" transform="matrix(1 0 0 -1 -0.000488281 12)"/>
</clipPath>
</defs>
</svg>
