<svg width="49" height="48" viewBox="0 0 49 48" fill="none" xmlns="http://www.w3.org/2000/svg">
<rect width="48" height="48" transform="translate(0.714233)" fill="#39A9E0"/>
<g clip-path="url(#clip0_76_1410)">
<path fill-rule="evenodd" clip-rule="evenodd" d="M18.3562 37.7112C31.2939 37.7112 38.3705 27.1573 38.3705 18.0061C38.3705 17.7057 38.3705 17.4075 38.3499 17.1105C39.7265 16.1315 40.9145 14.9161 41.8591 13.5254C40.5768 14.0857 39.2139 14.4532 37.8202 14.6152C39.2876 13.7494 40.3865 12.3891 40.9128 10.784C39.5311 11.5908 38.0208 12.1601 36.4454 12.4656C33.7814 9.67741 29.3259 9.54232 26.4922 12.1651C24.6665 13.8563 23.8899 16.3778 24.4574 18.7829C18.8019 18.5027 13.5322 15.8732 9.95965 11.5474C8.09279 14.712 9.04765 18.7589 12.1385 20.791C11.0191 20.7589 9.92365 20.4622 8.94479 19.9255V20.0134C8.94651 23.3096 11.3071 26.1479 14.5882 26.801C13.5528 27.0795 12.4659 27.1199 11.4134 26.919C12.3339 29.741 14.9756 31.6739 17.9842 31.7296C15.4934 33.6571 12.4162 34.7037 9.24822 34.7003C8.68936 34.6986 8.13051 34.6665 7.57336 34.6007C10.7911 36.6328 14.5334 37.7112 18.3562 37.7062" fill="white"/>
</g>
<defs>
<clipPath id="clip0_76_1410">
<rect width="34.2857" height="34.2857" fill="white" transform="translate(7.57141 6.85718)"/>
</clipPath>
</defs>
</svg>
