<svg width="373" height="91" viewBox="0 0 373 91" fill="none" xmlns="http://www.w3.org/2000/svg">
<path d="M94.6284 33.2656C101.764 33.2656 107.548 39.0501 107.548 46.1855" stroke="#263238" stroke-width="3.45054" stroke-miterlimit="10" stroke-linecap="round"/>
<path d="M100.131 34.4957C100.189 34.0932 100.23 33.6847 100.23 33.2662C100.23 28.5482 96.4055 24.7238 91.6875 24.7238C90.4466 24.7238 89.2706 24.9943 88.2066 25.4703C87.0356 17.7338 80.3576 11.8039 72.2942 11.8039C69.4912 11.8039 66.8562 12.5219 64.5612 13.7819C62.9478 10.2749 60.3433 7.32241 57.1113 5.26942C57.2268 5.34242 57.3428 5.41442 57.4568 5.48992C55.8063 5.04692 52.6483 3.34693 50.8578 3.31693C40.2984 3.13944 34.4415 9.81688 33.292 18.6868C32.0165 18.3428 30.6765 18.1563 29.292 18.1563C20.8261 18.1563 13.9636 25.0193 13.9636 33.4847C13.9636 34.8767 14.1526 36.2242 14.5006 37.5062C10.5251 39.7092 9.33765 44.4621 9.77514 47.8161C10.6861 54.7995 18.3376 58.087 21.1916 59.105C21.9141 59.2305 19.4331 59.105 20.1916 59.105H94.629C101.764 59.105 107.549 53.3206 107.549 46.1851C107.548 41.0192 104.514 36.5622 100.131 34.4957Z" fill="url(#paint0_linear_2007_87)"/>
<path d="M100.131 34.4957C100.189 34.0932 100.23 33.6847 100.23 33.2662C100.23 28.5482 96.4053 24.7237 91.6874 24.7237C90.4464 24.7237 89.2704 24.9942 88.2064 25.4702C87.0354 17.7338 80.3574 11.8038 72.294 11.8038C69.491 11.8038 66.856 12.5218 64.5611 13.7818C61.4091 6.93036 54.4891 2.1709 46.4527 2.1709C37.5527 2.1709 30.0178 8.00635 27.4598 16.0593C26.1843 15.7153 24.8443 15.5288 23.4598 15.5288C14.9939 15.5288 8.13095 22.3918 8.13095 30.8572C8.13095 32.2497 8.31995 33.5967 8.66795 34.8787C4.69248 37.0816 2 41.3186 2 46.1856C2 53.321 7.78446 59.1055 14.9199 59.1055H94.6288C101.764 59.1055 107.549 53.321 107.549 46.1856C107.548 41.0191 104.514 36.5621 100.131 34.4957Z" stroke="#263238" stroke-width="3.45054" stroke-miterlimit="10" stroke-linecap="round"/>
<path d="M92.1484 35.0251C92.1484 35.0251 92.2674 34.7961 92.5029 34.4471C92.6299 34.2756 92.7464 34.0656 92.9789 33.8646C93.1974 33.6631 93.4679 33.4176 93.7824 33.2096C94.0969 33.0256 94.4459 32.7961 94.8484 32.6486C95.2504 32.5006 95.6889 32.3426 96.1584 32.2841C96.6284 32.1851 97.1174 32.1836 97.6179 32.1876C97.8674 32.1946 98.1129 32.2346 98.3619 32.2676L98.7349 32.3241L99.0974 32.4161C99.5854 32.5331 100.046 32.7161 100.487 32.9166C100.709 33.0146 100.911 33.1426 101.114 33.2616C101.319 33.3781 101.516 33.4981 101.692 33.6431C102.063 33.9046 102.385 34.2021 102.672 34.4966C102.96 34.7911 103.196 35.1061 103.403 35.3956C103.596 35.7046 103.77 35.9781 103.889 36.2521C104.008 36.5246 104.108 36.7561 104.166 36.9671C104.283 37.3861 104.313 37.6361 104.313 37.6361C104.313 37.6361 104.054 37.5786 103.664 37.4596C103.474 37.4021 103.244 37.3326 102.979 37.2526C102.732 37.1741 102.453 37.0856 102.148 36.9891C101.86 36.8981 101.549 36.7991 101.219 36.6946C100.898 36.5916 100.571 36.4851 100.236 36.3841C99.9089 36.2671 99.5629 36.1891 99.2309 36.0786C98.8929 35.9881 98.5599 35.8806 98.2239 35.8046C98.0584 35.7506 97.8914 35.7116 97.7254 35.6801C97.5594 35.6486 97.3949 35.5916 97.2304 35.5621C97.0659 35.5366 96.9029 35.5001 96.7394 35.4601C96.5754 35.4121 96.4149 35.4166 96.2529 35.3771C95.9279 35.3071 95.6109 35.2831 95.2939 35.2346C94.9764 35.1811 94.6729 35.1856 94.3699 35.1406C94.0699 35.1191 93.7949 35.0991 93.5514 35.0816C93.2929 35.0426 93.0304 35.0806 92.8239 35.0681C92.4039 35.0596 92.1484 35.0251 92.1484 35.0251Z" fill="#263238"/>
<path d="M12.963 42.0283C12.963 42.0283 12.885 42.0003 12.739 41.9478C12.5995 41.8873 12.3825 41.8173 12.13 41.6928C11.881 41.5618 11.5565 41.3958 11.2315 41.1723C10.895 40.9558 10.5406 40.6808 10.1676 40.3573C9.80406 40.0268 9.42606 39.6458 9.06506 39.2068C8.70607 38.7673 8.35957 38.2738 8.04557 37.7343C7.41658 36.6564 6.94308 35.3844 6.68858 34.0694C6.56658 33.4109 6.48908 32.7439 6.48208 32.0859C6.46158 31.7579 6.48258 31.4319 6.50058 31.1109L6.51358 30.8714C6.52008 30.7519 6.52758 30.7144 6.53458 30.6324C6.54558 30.4944 6.56959 30.3474 6.59359 30.1784C6.68159 29.5379 6.82158 28.9684 6.99108 28.4214C7.16308 27.8794 7.36857 27.3834 7.58957 26.9429C8.03157 26.0599 8.53157 25.4049 8.91706 24.9819C9.30906 24.5604 9.57356 24.3564 9.57356 24.3564C9.57356 24.3564 9.57456 24.4394 9.57606 24.5944C9.56856 24.7444 9.57906 24.9724 9.56906 25.2454C9.56156 25.7969 9.54856 26.5589 9.55956 27.4269C9.56256 27.8609 9.57556 28.3234 9.59856 28.8034C9.61856 29.2779 9.65306 29.7939 9.69606 30.2794C9.73856 30.8159 9.80456 31.3134 9.86806 31.8434C9.90056 32.1049 9.94356 32.3669 9.98505 32.6289C10.0191 32.8924 10.0691 33.1539 10.1251 33.4139C10.2091 33.9399 10.3431 34.4549 10.4586 34.9689C10.5246 35.2234 10.597 35.4749 10.655 35.7294C10.7315 35.9769 10.804 36.2244 10.8705 36.4714C11.0245 36.9568 11.1735 37.4343 11.3335 37.8873C11.4915 38.3418 11.6545 38.7738 11.808 39.1818C11.968 39.5853 12.116 39.9658 12.2585 40.3043C12.3995 40.6493 12.522 40.9503 12.6235 41.1978C12.85 41.7123 12.963 42.0283 12.963 42.0283Z" fill="#263238"/>
<path d="M72.2944 11.8048C72.2944 11.8048 72.4934 11.7798 72.8664 11.7333C73.0529 11.7128 73.2829 11.6878 73.5529 11.6578C73.6884 11.6448 73.8329 11.6228 73.9889 11.6143C74.1469 11.6168 74.3154 11.6193 74.4929 11.6218C74.8494 11.6298 75.2529 11.6298 75.6914 11.6508C76.1204 11.6973 76.5844 11.7673 77.0864 11.8353C77.5864 11.9128 78.0984 12.0758 78.6569 12.2083C79.2099 12.3563 79.7589 12.6023 80.3569 12.8157C80.6494 12.9357 80.9304 13.0937 81.2269 13.2387C81.5169 13.3947 81.8334 13.5247 82.1189 13.7137C82.6924 14.0867 83.3149 14.4472 83.8729 14.9252C85.0518 15.8107 86.1133 16.9752 87.0738 18.2822C87.2983 18.6212 87.5248 18.9632 87.7528 19.3077C87.9733 19.6577 88.1458 20.0382 88.3453 20.4082L88.6353 20.9707L88.8753 21.5597C89.0263 21.9572 89.1973 22.3517 89.3238 22.7622C89.5538 23.5902 89.8128 24.4227 89.9128 25.2912C89.9828 25.7217 90.0568 26.1526 90.0663 26.5901L90.1033 27.2446L90.1208 27.5721L90.1293 27.7356L90.1338 27.8176L90.1358 27.8586L90.1368 27.8791C90.1363 27.9256 90.1398 27.8046 90.1358 27.9881L90.0693 29.1706C90.0518 29.3761 90.0608 29.5451 90.0213 29.7806L89.9198 30.4596C89.8398 30.9031 89.8023 31.3826 89.6713 31.7886C89.5558 32.2061 89.4403 32.6226 89.3258 33.0376C89.1998 33.4481 89.0268 33.8421 88.8788 34.2406L88.6388 34.8296L88.3488 35.3921C88.1493 35.7621 87.9768 36.1426 87.7563 36.4926C87.5283 36.8371 87.3023 37.1796 87.0778 37.5191C86.1168 38.8266 85.0554 39.9915 83.8764 40.877C83.3184 41.3555 82.6949 41.7145 82.1219 42.0885C81.8364 42.2775 81.5194 42.407 81.2294 42.563C80.9324 42.7075 80.6519 42.8665 80.3589 42.9865C79.7604 43.2 79.2109 43.445 78.6579 43.594C78.0994 43.726 77.5869 43.8885 77.0869 43.966C76.5844 44.0335 76.1204 44.104 75.6914 44.15C75.2569 44.169 74.8589 44.1685 74.5039 44.1765C74.3269 44.179 74.1594 44.1815 74.0019 44.184C73.8439 44.1765 73.6949 44.154 73.5579 44.141C73.2849 44.111 73.0524 44.086 72.8644 44.0655C72.4924 44.0185 72.2939 43.9935 72.2939 43.9935C72.2939 43.9935 72.4899 43.9485 72.8574 43.8645C73.0389 43.8255 73.2624 43.777 73.5259 43.72C73.7879 43.6715 74.0844 43.591 74.4114 43.4865C74.7389 43.3855 75.0999 43.2845 75.4854 43.1575C75.8634 42.996 76.2719 42.842 76.7014 42.67C77.1279 42.4895 77.5614 42.247 78.0214 42.0245C78.4769 41.789 78.9244 41.48 79.4014 41.1985C79.8524 40.868 80.3279 40.5405 80.7849 40.1615C81.2214 39.754 81.7119 39.3911 82.1214 38.9116C83.0174 38.0391 83.7774 36.9596 84.4779 35.8241C85.1704 34.6731 85.6688 33.3836 86.0753 32.0576C86.1543 31.7196 86.2333 31.3801 86.3128 31.0391C86.3613 30.8671 86.3858 30.7011 86.4033 30.5396L86.4743 30.0511L86.5508 29.5626C86.5828 29.4096 86.5743 29.1811 86.5883 28.9936L86.6413 27.8106C86.6368 27.9821 86.6398 27.8486 86.6383 27.8826L86.6373 27.8661L86.6358 27.8331L86.6328 27.7671L86.6263 27.6351L86.6143 27.3711L86.5918 26.8431C86.5938 26.4891 86.5338 26.1421 86.4813 25.7952L86.4073 25.2747C86.3903 25.0997 86.3623 24.9272 86.3153 24.7587C86.2358 24.4182 86.1568 24.0787 86.0778 23.7402C85.6743 22.4127 85.1714 21.1247 84.4814 19.9722C83.7809 18.8362 83.0204 17.7562 82.1244 16.8832C81.7149 16.4032 81.2234 16.0412 80.7874 15.6327C80.3304 15.2537 79.8539 14.9272 79.4034 14.5957C78.9259 14.3137 78.4784 14.0062 78.0224 13.7697C77.5619 13.5472 77.1284 13.3057 76.7014 13.1247C76.2714 12.9532 75.8629 12.7987 75.4849 12.6377C75.1044 12.5122 74.7484 12.4118 74.4224 12.3108C74.0994 12.2068 73.7994 12.1253 73.5299 12.0768C73.2639 12.0198 73.0379 11.9718 72.8544 11.9328C72.4899 11.8493 72.2944 11.8048 72.2944 11.8048Z" fill="#263238"/>
<path d="M46.4526 42.0257C46.4526 42.0257 46.2066 42.0482 45.7456 42.0902C45.5152 42.1082 45.2312 42.1307 44.8972 42.1572C44.7297 42.1682 44.5512 42.1897 44.3587 42.1947C44.1642 42.1867 43.9577 42.1782 43.7392 42.1692C43.3012 42.1482 42.8077 42.1362 42.2712 42.0977C41.7462 42.0262 41.1787 41.9302 40.5652 41.8332C39.9552 41.7252 39.3302 41.5137 38.6507 41.3392C38.3057 41.2622 37.9837 41.1047 37.6382 40.9772C37.2947 40.8417 36.9427 40.7027 36.5837 40.5607C36.2287 40.4082 35.8882 40.2097 35.5282 40.0272C35.1767 39.8312 34.7927 39.6682 34.4472 39.4322C33.7537 38.9662 32.9983 38.5197 32.3253 37.9277C30.8993 36.8332 29.6208 35.4013 28.4628 33.8038C28.1923 33.3893 27.9198 32.9713 27.6453 32.5503C27.3788 32.1233 27.1728 31.6588 26.9323 31.2083L26.5833 30.5228L26.2958 29.8048C26.1143 29.3208 25.9073 28.8408 25.7553 28.3418C25.6173 27.8373 25.4793 27.3308 25.3403 26.8228C25.1813 26.3183 25.1433 25.7873 25.0478 25.2668C24.9633 24.7438 24.8733 24.2203 24.8628 23.6888L24.8183 22.8938L24.7968 22.4958L24.7863 22.2969L24.7813 22.1973L24.7788 22.1474L24.7773 22.1224C24.7778 22.0744 24.7743 22.1938 24.7783 22.0089L24.8588 20.5449C24.8803 20.2924 24.8688 20.0764 24.9168 19.7944L25.0398 18.9764L25.1678 18.1609L25.2358 17.7549L25.3373 17.3719C25.4763 16.8639 25.6143 16.3574 25.7523 15.8529C25.9038 15.3534 26.1128 14.8744 26.2913 14.3889L26.5788 13.6709L26.9283 12.9854C27.1688 12.5349 27.3753 12.0699 27.6418 11.6429C27.9163 11.2214 28.1883 10.8034 28.4583 10.3884C29.6168 8.79045 30.8953 7.35796 32.3213 6.26297C32.9947 5.67048 33.7507 5.22548 34.4437 4.75798C34.7892 4.52198 35.1737 4.35898 35.5252 4.16298C35.8857 3.98148 36.2257 3.78199 36.5812 3.62949C36.9407 3.48799 37.2922 3.34899 37.6362 3.21349C37.9822 3.08649 38.3042 2.92849 38.6487 2.8515C39.3287 2.677 39.9537 2.4665 40.5642 2.358C41.1782 2.262 41.7457 2.165 42.2707 2.094C42.8027 2.0575 43.2912 2.046 43.7272 2.025C43.9447 2.016 44.1507 2.0075 44.3447 2C44.5392 2.004 44.7222 2.026 44.8917 2.037C45.2287 2.0635 45.5152 2.086 45.7477 2.1045C46.2077 2.147 46.4531 2.1695 46.4531 2.1695C46.4531 2.1695 46.2101 2.217 45.7547 2.3055C45.5292 2.347 45.2512 2.398 44.9242 2.458C44.7617 2.4895 44.5872 2.517 44.4027 2.5575C44.2197 2.607 44.0257 2.66 43.8202 2.71549C43.4117 2.82949 42.9597 2.94249 42.4772 3.08699C42.0032 3.27299 41.4907 3.45399 40.9502 3.65449C40.4132 3.86549 39.8677 4.15599 39.2857 4.42098C38.7102 4.70248 38.1437 5.07698 37.5387 5.41747C37.2452 5.60597 36.9617 5.82397 36.6647 6.02947C36.3762 6.24747 36.0577 6.43096 35.7807 6.68446C35.2242 7.18496 34.6012 7.63396 34.0762 8.22795C32.9333 9.30945 31.9563 10.6564 31.0583 12.0829C30.1703 13.5279 29.5238 15.1534 29.0028 16.8309C28.9008 17.2589 28.7988 17.6884 28.6963 18.1189L28.6198 18.4409L28.5778 18.7554L28.4853 19.3829L28.3873 20.0104C28.3468 20.2094 28.3573 20.4854 28.3393 20.7194L28.2723 22.1843C28.2773 22.0143 28.2743 22.1494 28.2758 22.1169L28.2768 22.1379L28.2788 22.1799L28.2828 22.2633L28.2908 22.4309L28.3063 22.7653L28.3358 23.4343C28.3348 23.8823 28.4103 24.3218 28.4773 24.7613L28.5728 25.4208L28.6163 25.7508L28.6928 26.0738C28.7953 26.5048 28.8978 26.9343 28.9998 27.3623C29.5173 29.0413 30.1683 30.6658 31.0538 32.1123C31.9523 33.5388 32.9292 34.8868 34.0722 35.9687C34.5967 36.5627 35.2212 37.0102 35.7772 37.5122C36.0542 37.7657 36.3732 37.9492 36.6617 38.1672C36.9587 38.3722 37.2422 38.5912 37.5357 38.7797C38.1412 39.1202 38.7077 39.4942 39.2832 39.7762C39.8652 40.0412 40.4112 40.3307 40.9482 40.5422C41.4892 40.7422 42.0017 40.9237 42.4757 41.1092C42.9537 41.2522 43.4002 41.3647 43.8072 41.4782C44.0117 41.5337 44.2057 41.5862 44.3877 41.6362C44.5742 41.6772 44.7532 41.7047 44.9177 41.7362C45.2477 41.7962 45.5277 41.8472 45.7552 41.8887C46.2107 41.9782 46.4526 42.0257 46.4526 42.0257Z" fill="#263238"/>
<path d="M55.5359 48.9052C55.5359 48.9052 55.6659 48.8312 55.9099 48.6917C56.1459 48.5507 56.5379 48.3787 56.9484 48.0922C57.1584 47.9537 57.3879 47.8092 57.6289 47.6422C57.8629 47.4492 58.1204 47.2592 58.3869 47.0517C58.6499 46.8382 58.9074 46.5832 59.1849 46.3362C59.4564 46.0807 59.7109 45.7782 59.9879 45.4897C60.2374 45.1702 60.5074 44.8537 60.7519 44.5027C60.9764 44.1347 61.2509 43.7947 61.4439 43.3847C61.9024 42.6152 62.2279 41.7297 62.5089 40.8247C62.7784 39.9087 62.8969 38.9367 62.9499 37.9577C62.9669 36.9738 62.8534 35.9823 62.6404 35.0083L62.4249 34.2528C62.3839 34.1228 62.3489 33.9498 62.3034 33.8558L62.1739 33.5418C62.0774 33.3303 62.0329 33.1258 61.9104 32.9013L61.5869 32.2368C61.0959 31.3888 60.5569 30.5718 59.9019 29.8773C59.2439 29.1958 58.5544 28.5518 57.7994 28.0718C57.4424 27.7928 57.0454 27.6113 56.6789 27.3848C56.3029 27.1818 55.9199 27.0193 55.553 26.8473C55.176 26.7143 54.813 26.5578 54.4555 26.4523C54.0965 26.3563 53.752 26.2438 53.4215 26.1718C53.09 26.1058 52.7745 26.0528 52.479 25.9853C52.184 25.9448 51.909 25.9193 51.6575 25.8903C51.153 25.8208 50.753 25.8383 50.4735 25.8193C50.192 25.8048 50.042 25.7968 50.042 25.7968C50.042 25.7968 50.1785 25.7358 50.434 25.6218C50.565 25.5673 50.726 25.4998 50.9155 25.4203C51.0115 25.3823 51.114 25.3338 51.226 25.2958C51.3395 25.2648 51.4605 25.2323 51.5885 25.1978C51.8455 25.1303 52.1325 25.0478 52.4505 24.9723C52.7695 24.9158 53.119 24.8748 53.4975 24.8218C53.876 24.7773 54.279 24.7933 54.7125 24.7783C55.1445 24.7768 55.5919 24.8473 56.0714 24.8863C56.5394 24.9688 57.0319 25.0668 57.5344 25.2008C58.0259 25.3633 58.5519 25.5103 59.0529 25.7538C60.0869 26.1818 61.0889 26.8388 62.0404 27.6273C62.2689 27.8348 62.5039 28.0418 62.7314 28.2603C62.9584 28.4788 63.1564 28.7283 63.3719 28.9658L63.6894 29.3293L63.9754 29.7213C64.1574 29.9898 64.3564 30.2508 64.5239 30.5328C64.8439 31.1043 65.1844 31.6643 65.4324 32.3488L65.6304 32.8423C65.7024 33.0148 65.7229 33.1303 65.7714 33.2768L66.0454 34.1993C66.3179 35.5053 66.4499 36.8468 66.3349 38.1587C66.3114 38.4857 66.2539 38.8087 66.2089 39.1297L66.1299 39.6082L66.0099 40.0757C65.9244 40.3847 65.8604 40.6962 65.7559 40.9937C65.6439 41.2877 65.5329 41.5797 65.4229 41.8692C64.9284 43.0012 64.3289 44.0382 63.5984 44.8852C63.2604 45.3277 62.8584 45.6967 62.4914 46.0617C62.1034 46.4072 61.7084 46.7172 61.3274 47.0007C60.9169 47.2512 60.5499 47.5167 60.1634 47.7092C59.7699 47.8912 59.4174 48.0877 59.0594 48.2177C58.6979 48.3417 58.3674 48.4617 58.0574 48.5552C57.7349 48.6332 57.4369 48.6907 57.1754 48.7467C57.0454 48.7732 56.9219 48.7987 56.8059 48.8227C56.6904 48.8377 56.5814 48.8402 56.4804 48.8487C56.2784 48.8627 56.1059 48.8747 55.9669 48.8842C55.6854 48.8982 55.5359 48.9052 55.5359 48.9052Z" fill="#263238"/>
<path d="M30.1967 85.5906C39.6086 85.5906 47.2385 77.9607 47.2385 68.5487C47.2385 59.1367 39.6086 51.5068 30.1967 51.5068C20.7847 51.5068 13.1548 59.1367 13.1548 68.5487C13.1548 77.9607 20.7847 85.5906 30.1967 85.5906Z" fill="url(#paint1_linear_2007_87)"/>
<path d="M79.3514 85.5906C88.7634 85.5906 96.3933 77.9607 96.3933 68.5487C96.3933 59.1367 88.7634 51.5068 79.3514 51.5068C69.9395 51.5068 62.3096 59.1367 62.3096 68.5487C62.3096 77.9607 69.9395 85.5906 79.3514 85.5906Z" fill="url(#paint2_linear_2007_87)"/>
<path d="M30.1973 46.8936C18.2374 46.8936 8.54248 56.589 8.54248 68.5484C8.54248 80.5083 18.2379 90.2032 30.1973 90.2032C42.1572 90.2032 51.8522 80.5078 51.8522 68.5484C51.8522 56.589 42.1567 46.8936 30.1973 46.8936ZM30.1973 83.7038C21.8274 83.7038 15.0424 76.9188 15.0424 68.5489C15.0424 60.179 21.8274 53.394 30.1973 53.394C38.5673 53.394 45.3522 60.179 45.3522 68.5489C45.3522 76.9188 38.5673 83.7038 30.1973 83.7038Z" fill="#263238"/>
<path d="M79.3511 46.8936C67.3912 46.8936 57.6963 56.589 57.6963 68.5484C57.6963 80.5083 67.3917 90.2032 79.3511 90.2032C91.311 90.2032 101.006 80.5078 101.006 68.5484C101.006 56.589 91.311 46.8936 79.3511 46.8936ZM79.3511 83.7038C70.9812 83.7038 64.1962 76.9188 64.1962 68.5489C64.1962 60.179 70.9812 53.394 79.3511 53.394C87.7211 53.394 94.506 60.179 94.506 68.5489C94.506 76.9188 87.7211 83.7038 79.3511 83.7038Z" fill="#263238"/>
<path d="M62.5243 59.492C60.1233 58.279 57.5108 57.6055 54.7744 57.6055C52.0379 57.6055 49.4254 58.279 47.0244 59.492" stroke="#263238" stroke-width="5.42228" stroke-miterlimit="10"/>
<path d="M103.594 63.8955H97.0181V58.3955H103.736C105.215 58.3955 106.414 59.595 106.414 61.0745C106.414 62.6325 105.152 63.8955 103.594 63.8955Z" fill="#263238"/>
<path d="M12.3882 63.8955H5.95477C4.39678 63.8955 3.13379 62.6325 3.13379 61.0745C3.13379 59.595 4.33328 58.3955 5.81277 58.3955H12.3882C12.4667 58.3955 12.5302 58.459 12.5302 58.5375V63.753C12.5307 63.832 12.4667 63.8955 12.3882 63.8955Z" fill="#263238"/>
<path d="M30.8452 74.3184C30.4862 74.3184 30.1422 74.3814 29.8207 74.4924C30.2782 74.7354 30.5937 75.2114 30.5937 75.7659C30.5937 76.5654 29.9457 77.2133 29.1462 77.2133C28.5917 77.2133 28.1162 76.8983 27.8727 76.4404C27.7617 76.7619 27.6987 77.1058 27.6987 77.4648C27.6987 79.2023 29.1072 80.6113 30.8452 80.6113C32.5827 80.6113 33.9917 79.2028 33.9917 77.4648C33.9917 75.7268 32.5827 74.3184 30.8452 74.3184Z" fill="#263238"/>
<path d="M80.5947 74.3184C80.2357 74.3184 79.8917 74.3814 79.5702 74.4924C80.0277 74.7354 80.3432 75.2114 80.3432 75.7659C80.3432 76.5654 79.6952 77.2133 78.8957 77.2133C78.3412 77.2133 77.8658 76.8983 77.6223 76.4404C77.5113 76.7619 77.4482 77.1058 77.4482 77.4648C77.4482 79.2023 78.8567 80.6113 80.5947 80.6113C82.3322 80.6113 83.7412 79.2028 83.7412 77.4648C83.7412 75.7268 82.3322 74.3184 80.5947 74.3184Z" fill="#263238"/>
<path d="M21.2744 61.7586C21.2744 61.7586 21.3057 61.6871 21.3642 61.5529C21.4287 61.4249 21.5102 61.2245 21.6393 60.9946C21.702 60.8779 21.7713 60.7483 21.8466 60.6072C21.9359 60.4695 22.0456 60.3305 22.1601 60.1746C22.3919 59.8642 22.6743 59.5108 23.0204 59.1985C23.1904 59.0331 23.3743 58.8675 23.5663 58.694C23.7693 58.5388 23.9876 58.3891 24.2112 58.2286C24.6531 57.8937 25.1831 57.6578 25.7241 57.3816C26.2864 57.1718 26.872 56.9256 27.5004 56.8128C28.1196 56.644 28.7705 56.6104 29.4172 56.5497C30.0666 56.5681 30.7189 56.5571 31.3478 56.6851C31.9828 56.7532 32.5826 56.9649 33.1584 57.135C33.716 57.3758 34.2609 57.5759 34.7236 57.8813C34.9576 58.0272 35.1849 58.1634 35.3979 58.3039C35.6008 58.4646 35.7951 58.6192 35.9756 58.7725C36.3456 59.065 36.6368 59.3912 36.884 59.6817C37.0062 59.8284 37.1236 59.9583 37.2217 60.0899C37.3108 60.2295 37.3931 60.3581 37.4669 60.4738C37.6158 60.7003 37.711 60.8956 37.7826 61.0189C37.848 61.148 37.8828 61.2169 37.8828 61.2169C37.8828 61.2169 37.8077 61.1925 37.6668 61.1468C37.5322 61.0953 37.3247 61.0352 37.0887 60.9354C36.97 60.8887 36.8382 60.8371 36.6949 60.7809C36.5418 60.7403 36.3882 60.6841 36.2209 60.6323C35.8908 60.5217 35.5359 60.3865 35.1302 60.2915C34.9356 60.2345 34.7334 60.1753 34.5238 60.1139C34.3125 60.0681 34.0938 60.0207 33.869 59.9718C33.4364 59.8441 32.953 59.816 32.4875 59.7095C32.0025 59.6744 31.5202 59.5851 31.0191 59.5767C30.5227 59.5317 30.0183 59.5538 29.5151 59.5469C29.0137 59.5862 28.5085 59.5946 28.0158 59.6722C27.5158 59.7108 27.0412 59.8349 26.5583 59.8991C26.1008 60.0357 25.6199 60.095 25.1966 60.2506C24.9779 60.3129 24.7661 60.3803 24.5528 60.4354C24.3476 60.5104 24.1494 60.583 23.9589 60.6525C23.5562 60.7775 23.2236 60.9263 22.9058 61.0541C22.7444 61.1152 22.5954 61.1792 22.4457 61.2301C22.3022 61.2998 22.1703 61.3639 22.0508 61.4219C21.8163 61.5421 21.6132 61.617 21.4829 61.6764C21.3463 61.73 21.2744 61.7586 21.2744 61.7586Z" fill="#263238"/>
<path d="M71.5197 61.438C71.5197 61.438 71.5545 61.3683 71.6198 61.2372C71.6906 61.1125 71.7821 60.9165 71.9226 60.6934C71.991 60.58 72.0668 60.4541 72.1492 60.3169C72.2452 60.1839 72.3618 60.0506 72.484 59.9007C72.7315 59.6027 73.031 59.2636 73.3923 58.9691C73.5705 58.8125 73.7625 58.6564 73.963 58.4927C74.1735 58.3479 74.3991 58.2094 74.6305 58.0604C75.0887 57.7482 75.6299 57.5393 76.1842 57.2906C76.7563 57.1095 77.3535 56.893 77.9868 56.812C78.6138 56.6746 79.2655 56.6738 79.9145 56.6457C80.5621 56.6968 81.2141 56.7187 81.8357 56.8782C82.4666 56.9782 83.0549 57.2199 83.6214 57.4187C84.1661 57.6872 84.7003 57.9145 85.1471 58.2428C85.3734 58.4003 85.5936 58.5478 85.7992 58.6989C85.9942 58.87 86.1801 59.0338 86.3526 59.196C86.7074 59.5067 86.9818 59.8472 87.214 60.1497C87.3287 60.3024 87.4394 60.438 87.5307 60.5744C87.6127 60.7183 87.6881 60.8505 87.7564 60.9702C87.8937 61.2039 87.9789 61.4038 88.0445 61.5308C88.1034 61.6631 88.1346 61.7336 88.1346 61.7336C88.1346 61.7336 88.0609 61.7054 87.9225 61.6528C87.7906 61.5946 87.5864 61.5241 87.3557 61.4125C87.2396 61.3599 87.1105 61.3017 86.9702 61.2384C86.8193 61.1901 86.6688 61.1263 86.5043 61.0661C86.1802 60.939 85.8325 60.7861 85.4321 60.6708C85.2406 60.6041 85.0417 60.5348 84.8354 60.4629C84.6267 60.4065 84.4106 60.3482 84.1886 60.2881C83.763 60.1387 83.2816 60.0863 82.8221 59.9565C82.3394 59.897 81.8623 59.7835 81.3622 59.7499C80.8687 59.68 80.3639 59.6767 79.8616 59.6444C79.3589 59.6585 78.8539 59.6414 78.3579 59.6941C77.8566 59.7075 77.3764 59.8075 76.8909 59.8474C76.4271 59.9608 75.9438 59.9957 75.5132 60.1298C75.2916 60.1811 75.0767 60.2377 74.8606 60.2816C74.6518 60.3462 74.4502 60.4087 74.2565 60.4686C73.848 60.573 73.5083 60.7049 73.1845 60.8166C73.0202 60.8695 72.8682 60.9259 72.7161 60.9691C72.5693 61.0316 72.4343 61.089 72.3121 61.1409C72.0722 61.2494 71.8652 61.3137 71.732 61.3665C71.593 61.4132 71.5197 61.438 71.5197 61.438Z" fill="#263238"/>
<path d="M19.648 69.436L21.136 64.612H23.092L24.568 69.436L26.236 64.612H28.264L25.336 73H23.944L22.108 67.168L20.284 73H18.892L15.964 64.612H17.992L19.648 69.436ZM34.4627 64.612H36.3347V73H34.4627V69.7H31.1267V73H29.2547V64.612H31.1267V68.116H34.4627V64.612ZM42.0073 73H40.1353V69.688L37.2313 64.612H39.2593L41.0713 67.732L42.8833 64.612H44.9113L42.0073 69.688V73Z" fill="black"/>
<path d="M68.648 69.436L70.136 64.612H72.092L73.568 69.436L75.236 64.612H77.264L74.336 73H72.944L71.108 67.168L69.284 73H67.892L64.964 64.612H66.992L68.648 69.436ZM83.4627 64.612H85.3347V73H83.4627V69.7H80.1267V73H78.2547V64.612H80.1267V68.116H83.4627V64.612ZM91.0073 73H89.1353V69.688L86.2313 64.612H88.2593L90.0713 67.732L91.8833 64.612H93.9113L91.0073 69.688V73Z" fill="black"/>
<path d="M151.611 23.0547C151.434 23.4818 151.226 24.0078 150.986 24.6328C150.809 25.237 150.523 26.1328 150.127 27.3203C149.533 28.8516 148.59 31.0807 147.299 34.0078C145.976 36.987 145.028 39.2109 144.455 40.6797C144.028 41.7734 143.627 42.6484 143.252 43.3047C142.762 44.1693 142.018 44.6016 141.018 44.6016C140.424 44.6016 139.887 44.4401 139.408 44.1172C138.846 43.7422 138.544 43.2474 138.502 42.6328C138.023 41.4349 137.721 40.4557 137.596 39.6953C137.137 37.4661 136.502 34.1172 135.689 29.6484C135.012 31.7422 134.283 33.6224 133.502 35.2891C132.335 37.7891 131.57 39.7526 131.205 41.1797C131.299 41.4089 131.346 41.6536 131.346 41.9141C131.346 42.5599 131.059 43.0859 130.486 43.4922C129.986 43.8359 129.434 44.0078 128.83 44.0078C128.07 44.0078 127.439 43.8151 126.939 43.4297C126.398 43.0026 126.117 42.4193 126.096 41.6797L125.611 39.8516C125.268 38.2266 124.705 35.7995 123.924 32.5703C123.236 30.1016 122.085 26.5859 120.471 22.0234C120.377 21.763 120.33 21.5026 120.33 21.2422C120.33 20.6172 120.57 20.1224 121.049 19.7578C121.476 19.4245 121.992 19.2578 122.596 19.2578C123.387 19.2578 124.018 19.5911 124.486 20.2578C124.747 20.6224 125.044 21.2839 125.377 22.2422C126.398 25.1797 127.549 29.4609 128.83 35.0859C129.663 33.0547 130.512 30.6589 131.377 27.8984C132.075 25.6484 132.643 24.0495 133.08 23.1016C134.122 20.8307 135.184 19.6953 136.268 19.6953C137.288 19.6953 138.033 20.2526 138.502 21.3672C138.731 21.8984 138.955 22.862 139.174 24.2578C139.236 24.6849 139.372 25.7318 139.58 27.3984C139.799 29.1901 140.455 32.4505 141.549 37.1797C142.653 34.5964 144.137 30.8724 146.002 26.0078C146.117 25.7161 146.387 24.7578 146.814 23.1328C147.117 21.9661 147.497 21.0443 147.955 20.3672C148.455 19.638 149.122 19.2734 149.955 19.2734C150.59 19.2734 151.117 19.4714 151.533 19.8672C151.95 20.2526 152.158 20.7526 152.158 21.3672C152.158 21.5859 151.976 22.1484 151.611 23.0547ZM176.283 21.4297C176.075 22.1901 175.971 22.8516 175.971 23.4141C175.971 23.7057 175.939 24.1589 175.877 24.7734C175.825 25.3776 175.799 25.8255 175.799 26.1172C175.799 27.1068 175.747 28.5755 175.643 30.5234C175.538 32.4714 175.486 33.9401 175.486 34.9297C175.486 35.6901 175.544 36.8255 175.658 38.3359C175.773 39.8464 175.83 40.9818 175.83 41.7422C175.83 42.3151 175.627 42.7995 175.221 43.1953C174.814 43.5911 174.309 43.7891 173.705 43.7891C173.09 43.7891 172.559 43.5911 172.111 43.1953C171.663 42.8099 171.439 42.3359 171.439 41.7734C171.439 41.013 171.403 39.8724 171.33 38.3516C171.268 36.8307 171.236 35.6901 171.236 34.9297C171.236 34.3359 171.247 33.8099 171.268 33.3516C169.632 33.4245 167.611 33.6797 165.205 34.1172C163.205 34.4818 161.205 34.8516 159.205 35.2266C159.184 35.9349 159.111 37.1172 158.986 38.7734C158.882 40.2318 158.83 41.4245 158.83 42.3516C158.83 42.9245 158.627 43.4089 158.221 43.8047C157.814 44.2005 157.309 44.3984 156.705 44.3984C156.101 44.3984 155.596 44.2005 155.189 43.8047C154.783 43.4089 154.58 42.9245 154.58 42.3516C154.58 41.2995 154.669 39.7266 154.846 37.6328C155.033 35.5391 155.127 33.9661 155.127 32.9141C155.127 31.5807 155.158 29.5755 155.221 26.8984C155.283 24.2109 155.314 22.2005 155.314 20.8672C155.314 20.2943 155.518 19.8099 155.924 19.4141C156.33 19.0182 156.835 18.8203 157.439 18.8203C158.044 18.8203 158.549 19.0182 158.955 19.4141C159.361 19.8099 159.564 20.2943 159.564 20.8672C159.564 21.6589 159.533 22.8516 159.471 24.4453C159.419 26.0286 159.393 27.2161 159.393 28.0078C159.393 28.2682 159.356 28.7682 159.283 29.5078C159.221 30.1953 159.195 30.7214 159.205 31.0859L165.205 29.9609C167.549 29.5443 169.57 29.3047 171.268 29.2422C171.309 28.5443 171.377 26.6693 171.471 23.6172C171.492 22.8151 171.736 21.8932 172.205 20.8516C172.788 19.5703 173.45 18.9297 174.189 18.9297C174.742 18.9297 175.231 19.112 175.658 19.4766C176.117 19.8724 176.346 20.3672 176.346 20.9609C176.346 21.1172 176.325 21.2734 176.283 21.4297ZM196.283 23.8203C195.752 24.9141 194.684 27.2786 193.08 30.9141C191.747 33.9557 190.611 36.3411 189.674 38.0703C188.049 41.0703 187.179 42.6589 187.064 42.8359C186.45 43.7422 185.742 44.1953 184.939 44.1953C184.367 44.1953 183.861 44.0078 183.424 43.6328C182.945 43.2161 182.705 42.7005 182.705 42.0859C182.705 41.5755 183.794 39.4297 185.971 35.6484C185.169 34.4922 184.018 32.737 182.518 30.3828C181.393 28.6536 179.742 26.0443 177.564 22.5547C177.356 22.2005 177.252 21.8307 177.252 21.4453C177.252 20.8411 177.486 20.3307 177.955 19.9141C178.393 19.5286 178.903 19.3359 179.486 19.3359C180.174 19.3359 180.799 19.6849 181.361 20.3828L182.533 22.2578C182.606 22.3828 183.502 23.9036 185.221 26.8203C186.304 28.6849 187.262 30.1589 188.096 31.2422C188.887 29.6484 190.028 27.237 191.518 24.0078C191.83 23.2891 192.299 22.2005 192.924 20.7422C193.32 19.8047 193.997 19.3359 194.955 19.3359C195.528 19.3359 196.033 19.5234 196.471 19.8984C196.95 20.3047 197.189 20.8151 197.189 21.4297C197.189 21.7839 196.887 22.5807 196.283 23.8203ZM128.471 76.0547C125.825 76.0547 123.742 75.4661 122.221 74.2891C120.939 73.3099 120.299 72.1797 120.299 70.8984C120.299 70.2422 120.497 69.7005 120.893 69.2734C121.288 68.8359 121.835 68.6172 122.533 68.6172C123.471 68.6172 124.158 69.0964 124.596 70.0547C125.189 71.3359 126.533 71.9766 128.627 71.9766C130.419 71.9766 132.153 71.5859 133.83 70.8047C135.57 70.0026 136.439 69.1224 136.439 68.1641C136.439 66.8516 135.898 65.987 134.814 65.5703C134.044 65.2682 132.497 65.0911 130.174 65.0391C128.372 64.9974 126.757 64.6589 125.33 64.0234C123.403 63.1589 122.455 61.9193 122.486 60.3047C122.518 58.2734 123.601 56.4141 125.736 54.7266C127.872 53.0286 130.226 52.1797 132.799 52.1797C133.82 52.1797 135.08 52.4141 136.58 52.8828C138.445 53.4661 139.377 54.138 139.377 54.8984C139.377 55.4401 139.189 55.9193 138.814 56.3359C138.398 56.8047 137.861 57.0391 137.205 57.0391C136.715 57.0391 135.981 56.9349 135.002 56.7266C134.033 56.5182 133.299 56.4141 132.799 56.4141C131.455 56.4245 130.179 56.7474 128.971 57.3828C127.721 58.0286 127.096 58.7318 127.096 59.4922C127.096 59.888 127.283 60.2161 127.658 60.4766C128.044 60.7266 128.617 60.9036 129.377 61.0078C130.71 61.0807 132.038 61.1536 133.361 61.2266C135.674 61.4036 137.502 62.0547 138.846 63.1797C140.325 64.4297 141.064 66.1589 141.064 68.3672C141.064 71.0547 139.533 73.0911 136.471 74.4766C134.137 75.5286 131.471 76.0547 128.471 76.0547ZM150.518 76.0859C148.226 76.0859 146.304 75.4349 144.752 74.1328C143.117 72.7578 142.299 70.9453 142.299 68.6953C142.299 66.6224 143.033 64.4818 144.502 62.2734C146.169 59.7526 148.106 58.4922 150.314 58.4922C151.398 58.4922 152.663 58.7839 154.111 59.3672C155.872 60.0859 156.752 60.9141 156.752 61.8516C156.752 62.362 156.575 62.8151 156.221 63.2109C155.846 63.638 155.361 63.8516 154.768 63.8516C154.32 63.8516 153.778 63.612 153.143 63.1328C152.518 62.6432 151.575 62.3984 150.314 62.3984C149.512 62.3984 148.643 63.1849 147.705 64.7578C146.809 66.2786 146.361 67.5911 146.361 68.6953C146.361 69.7891 146.757 70.6484 147.549 71.2734C148.299 71.8672 149.288 72.1641 150.518 72.1641C151.215 72.1641 152.07 71.8984 153.08 71.3672C154.09 70.8359 154.731 70.5703 155.002 70.5703C155.564 70.5703 156.044 70.7734 156.439 71.1797C156.846 71.5859 157.049 72.0495 157.049 72.5703C157.049 73.3828 156.163 74.1953 154.393 75.0078C152.809 75.7266 151.518 76.0859 150.518 76.0859ZM163.33 56.3203C162.663 56.3203 162.085 56.0964 161.596 55.6484C161.106 55.2005 160.861 54.6536 160.861 54.0078C160.861 53.362 161.106 52.8151 161.596 52.3672C162.085 51.9193 162.663 51.6953 163.33 51.6953C163.997 51.6953 164.57 51.9193 165.049 52.3672C165.538 52.8151 165.783 53.362 165.783 54.0078C165.783 54.6536 165.538 55.2005 165.049 55.6484C164.57 56.0964 163.997 56.3203 163.33 56.3203ZM164.658 67.7734C164.658 68.3672 164.674 69.3203 164.705 70.6328C164.747 71.9453 164.768 72.8984 164.768 73.4922C164.768 74.0964 164.564 74.5964 164.158 74.9922C163.752 75.3776 163.236 75.5703 162.611 75.5703C161.986 75.5703 161.471 75.3776 161.064 74.9922C160.658 74.5964 160.455 74.0964 160.455 73.4922C160.455 72.8984 160.434 71.9453 160.393 70.6328C160.361 69.3203 160.346 68.3672 160.346 67.7734C160.346 66.8464 160.398 65.6849 160.502 64.2891C160.606 62.8932 160.658 61.7318 160.658 60.8047C160.658 60.2005 160.861 59.7057 161.268 59.3203C161.674 58.9245 162.189 58.7266 162.814 58.7266C163.439 58.7266 163.955 58.9245 164.361 59.3203C164.768 59.7057 164.971 60.2005 164.971 60.8047C164.971 61.7318 164.919 62.8932 164.814 64.2891C164.71 65.6849 164.658 66.8464 164.658 67.7734ZM176.611 75.8203C174.122 75.8203 172.085 75.2266 170.502 74.0391C168.752 72.7266 167.877 70.8776 167.877 68.4922C167.877 65.8568 168.57 63.6276 169.955 61.8047C171.497 59.7839 173.575 58.7734 176.189 58.7734C178.002 58.7734 179.507 59.0651 180.705 59.6484C182.278 60.4193 183.064 61.6172 183.064 63.2422C183.064 64.388 182.424 65.4036 181.143 66.2891C180.559 66.6953 179.387 67.2891 177.627 68.0703L172.361 70.3984C172.861 70.9401 173.465 71.3464 174.174 71.6172C174.882 71.888 175.695 72.0234 176.611 72.0234C178.007 72.0234 179.189 71.737 180.158 71.1641C181.023 70.6536 181.715 70.3984 182.236 70.3984C183.32 70.3984 183.861 70.9245 183.861 71.9766C183.861 73.1641 182.992 74.1328 181.252 74.8828C179.794 75.5078 178.247 75.8203 176.611 75.8203ZM176.189 62.5547C175.221 62.5547 174.393 62.8776 173.705 63.5234C173.018 64.1693 172.465 65.138 172.049 66.4297C173.226 65.9193 174.398 65.4141 175.564 64.9141C176.971 64.2786 178.09 63.6901 178.924 63.1484C178.226 62.7526 177.314 62.5547 176.189 62.5547ZM198.955 76.2109C197.674 76.2109 196.96 75.5807 196.814 74.3203C196.669 73.2474 196.523 72.1693 196.377 71.0859C196.221 69.9401 196.143 68.862 196.143 67.8516C196.143 67.5807 196.158 67.1172 196.189 66.4609C196.231 65.8047 196.252 65.3411 196.252 65.0703C196.252 64.9974 196.262 64.8151 196.283 64.5234C196.304 64.2214 196.314 63.9766 196.314 63.7891C196.314 62.9245 196.09 62.4922 195.643 62.4922C194.684 62.4922 193.742 63.0547 192.814 64.1797C191.898 65.2943 191.179 66.7109 190.658 68.4297C190.637 68.7734 190.59 69.2318 190.518 69.8047C190.455 70.2734 190.424 70.7318 190.424 71.1797C190.424 71.4714 190.455 71.9141 190.518 72.5078C190.59 73.0911 190.627 73.5286 190.627 73.8203C190.627 74.4141 190.419 74.9036 190.002 75.2891C189.596 75.6849 189.08 75.8828 188.455 75.8828C187.83 75.8828 187.314 75.6849 186.908 75.2891C186.502 74.9036 186.299 74.4141 186.299 73.8203C186.299 73.5286 186.268 73.0911 186.205 72.5078C186.143 71.9141 186.111 71.4714 186.111 71.1797C186.111 70.1797 186.184 68.7891 186.33 67.0078C186.476 65.2266 186.549 63.8359 186.549 62.8359C186.549 62.5234 186.528 62.0599 186.486 61.4453C186.455 60.8203 186.439 60.3568 186.439 60.0547C186.439 59.4714 186.648 58.9922 187.064 58.6172C187.492 58.2318 188.012 58.0391 188.627 58.0391C189.992 58.0391 190.721 58.8568 190.814 60.4922L190.83 60.6641C192.351 59.1328 193.955 58.3672 195.643 58.3672C197.611 58.3672 198.971 59.1901 199.721 60.8359C200.221 61.9401 200.471 63.5911 200.471 65.7891V66.8984C200.46 67.3776 200.455 67.7161 200.455 67.9141C200.455 68.7266 200.564 69.7734 200.783 71.0547C201.012 72.3359 201.127 73.3776 201.127 74.1797C201.127 74.763 200.919 75.2474 200.502 75.6328C200.085 76.0182 199.57 76.2109 198.955 76.2109ZM214.424 62.5234C214.205 62.5234 213.945 62.5182 213.643 62.5078C213.351 62.487 213.096 62.4766 212.877 62.4766C212.45 62.4766 211.955 62.5182 211.393 62.6016C211.58 66.8099 211.674 69.5599 211.674 70.8516C211.674 70.987 211.679 71.2422 211.689 71.6172C211.7 71.9818 211.705 72.2786 211.705 72.5078C211.705 74.9036 210.95 76.1016 209.439 76.1016C208.867 76.1016 208.372 75.9245 207.955 75.5703C207.497 75.1953 207.268 74.7266 207.268 74.1641C207.268 73.7891 207.283 73.2266 207.314 72.4766C207.346 71.7266 207.361 71.1641 207.361 70.7891C207.361 69.5286 207.268 66.8307 207.08 62.6953C206.434 62.6641 205.455 62.5807 204.143 62.4453C202.84 62.2995 202.189 61.6224 202.189 60.4141C202.189 59.8307 202.387 59.3359 202.783 58.9297C203.179 58.5234 203.689 58.3203 204.314 58.3203C204.7 58.3203 205.585 58.3828 206.971 58.5078C206.96 58.1745 206.934 57.6224 206.893 56.8516C206.851 56.1849 206.83 55.6693 206.83 55.3047C206.83 54.7214 207.044 54.237 207.471 53.8516C207.898 53.4661 208.413 53.2734 209.018 53.2734C210.559 53.2734 211.33 54.5703 211.33 57.1641L211.299 58.4453C211.945 58.3516 212.471 58.3047 212.877 58.3047C214.075 58.3047 214.893 58.3828 215.33 58.5391C216.163 58.8307 216.58 59.4661 216.58 60.4453C216.58 61.0391 216.377 61.5339 215.971 61.9297C215.564 62.3255 215.049 62.5234 214.424 62.5234ZM222.049 56.3203C221.382 56.3203 220.804 56.0964 220.314 55.6484C219.825 55.2005 219.58 54.6536 219.58 54.0078C219.58 53.362 219.825 52.8151 220.314 52.3672C220.804 51.9193 221.382 51.6953 222.049 51.6953C222.715 51.6953 223.288 51.9193 223.768 52.3672C224.257 52.8151 224.502 53.362 224.502 54.0078C224.502 54.6536 224.257 55.2005 223.768 55.6484C223.288 56.0964 222.715 56.3203 222.049 56.3203ZM223.377 67.7734C223.377 68.3672 223.393 69.3203 223.424 70.6328C223.465 71.9453 223.486 72.8984 223.486 73.4922C223.486 74.0964 223.283 74.5964 222.877 74.9922C222.471 75.3776 221.955 75.5703 221.33 75.5703C220.705 75.5703 220.189 75.3776 219.783 74.9922C219.377 74.5964 219.174 74.0964 219.174 73.4922C219.174 72.8984 219.153 71.9453 219.111 70.6328C219.08 69.3203 219.064 68.3672 219.064 67.7734C219.064 66.8464 219.117 65.6849 219.221 64.2891C219.325 62.8932 219.377 61.7318 219.377 60.8047C219.377 60.2005 219.58 59.7057 219.986 59.3203C220.393 58.9245 220.908 58.7266 221.533 58.7266C222.158 58.7266 222.674 58.9245 223.08 59.3203C223.486 59.7057 223.689 60.2005 223.689 60.8047C223.689 61.7318 223.637 62.8932 223.533 64.2891C223.429 65.6849 223.377 66.8464 223.377 67.7734ZM234.877 59.0547C236.273 58.9297 237.273 58.8672 237.877 58.8672C239.825 58.8672 240.799 59.5339 240.799 60.8672C240.799 62.2422 239.762 62.8984 237.689 62.8359C237.033 62.8151 236.038 62.862 234.705 62.9766C234.663 64.0807 234.653 65.487 234.674 67.1953C234.715 69.6536 234.736 71.0547 234.736 71.3984C234.736 73.3047 234.617 74.8151 234.377 75.9297C234.137 77.0443 233.45 77.6016 232.314 77.6016C231.731 77.6016 231.221 77.4141 230.783 77.0391C230.356 76.6641 230.143 76.1901 230.143 75.6172C230.143 75.4818 230.153 75.3516 230.174 75.2266C230.424 73.737 230.549 72.3359 230.549 71.0234V63.2109C230.361 63.2214 230.018 63.263 229.518 63.3359C229.122 63.388 228.82 63.4141 228.611 63.4141C227.976 63.4141 227.45 63.2318 227.033 62.8672C226.617 62.4922 226.408 61.9922 226.408 61.3672C226.408 60.3984 226.919 59.763 227.939 59.4609C228.398 59.3255 229.309 59.237 230.674 59.1953C230.684 59.0078 230.752 58.4193 230.877 57.4297C231.169 55.1068 231.799 53.3776 232.768 52.2422C233.976 50.8255 235.83 50.1172 238.33 50.1172C240.236 50.1172 241.189 50.7995 241.189 52.1641C241.189 53.5182 240.304 54.1953 238.533 54.1953C237.273 54.1953 236.356 54.638 235.783 55.5234C235.356 56.1797 235.07 57.2057 234.924 58.6016L234.877 59.0547ZM247.299 56.3203C246.632 56.3203 246.054 56.0964 245.564 55.6484C245.075 55.2005 244.83 54.6536 244.83 54.0078C244.83 53.362 245.075 52.8151 245.564 52.3672C246.054 51.9193 246.632 51.6953 247.299 51.6953C247.965 51.6953 248.538 51.9193 249.018 52.3672C249.507 52.8151 249.752 53.362 249.752 54.0078C249.752 54.6536 249.507 55.2005 249.018 55.6484C248.538 56.0964 247.965 56.3203 247.299 56.3203ZM248.627 67.7734C248.627 68.3672 248.643 69.3203 248.674 70.6328C248.715 71.9453 248.736 72.8984 248.736 73.4922C248.736 74.0964 248.533 74.5964 248.127 74.9922C247.721 75.3776 247.205 75.5703 246.58 75.5703C245.955 75.5703 245.439 75.3776 245.033 74.9922C244.627 74.5964 244.424 74.0964 244.424 73.4922C244.424 72.8984 244.403 71.9453 244.361 70.6328C244.33 69.3203 244.314 68.3672 244.314 67.7734C244.314 66.8464 244.367 65.6849 244.471 64.2891C244.575 62.8932 244.627 61.7318 244.627 60.8047C244.627 60.2005 244.83 59.7057 245.236 59.3203C245.643 58.9245 246.158 58.7266 246.783 58.7266C247.408 58.7266 247.924 58.9245 248.33 59.3203C248.736 59.7057 248.939 60.2005 248.939 60.8047C248.939 61.7318 248.887 62.8932 248.783 64.2891C248.679 65.6849 248.627 66.8464 248.627 67.7734ZM259.893 76.0859C257.601 76.0859 255.679 75.4349 254.127 74.1328C252.492 72.7578 251.674 70.9453 251.674 68.6953C251.674 66.6224 252.408 64.4818 253.877 62.2734C255.544 59.7526 257.481 58.4922 259.689 58.4922C260.773 58.4922 262.038 58.7839 263.486 59.3672C265.247 60.0859 266.127 60.9141 266.127 61.8516C266.127 62.362 265.95 62.8151 265.596 63.2109C265.221 63.638 264.736 63.8516 264.143 63.8516C263.695 63.8516 263.153 63.612 262.518 63.1328C261.893 62.6432 260.95 62.3984 259.689 62.3984C258.887 62.3984 258.018 63.1849 257.08 64.7578C256.184 66.2786 255.736 67.5911 255.736 68.6953C255.736 69.7891 256.132 70.6484 256.924 71.2734C257.674 71.8672 258.663 72.1641 259.893 72.1641C260.59 72.1641 261.445 71.8984 262.455 71.3672C263.465 70.8359 264.106 70.5703 264.377 70.5703C264.939 70.5703 265.419 70.7734 265.814 71.1797C266.221 71.5859 266.424 72.0495 266.424 72.5703C266.424 73.3828 265.538 74.1953 263.768 75.0078C262.184 75.7266 260.893 76.0859 259.893 76.0859ZM298.674 58.4609C297.736 58.4609 297.044 57.9661 296.596 56.9766C296.387 56.5078 296.179 56.2266 295.971 56.1328C295.814 56.0599 295.403 56.0234 294.736 56.0234C293.424 56.0234 291.908 57.0443 290.189 59.0859C287.783 61.9401 286.58 64.612 286.58 67.1016C286.58 68.237 286.96 69.2109 287.721 70.0234C288.481 70.8359 289.393 71.2422 290.455 71.2422C291.486 71.2422 292.533 70.9714 293.596 70.4297C293.971 70.2318 294.762 69.7214 295.971 68.8984C296.783 68.3568 297.398 68.0859 297.814 68.0859C298.439 68.0859 298.971 68.3151 299.408 68.7734C299.814 69.2005 300.018 69.6901 300.018 70.2422C300.018 70.8568 299.747 71.3932 299.205 71.8516C296.34 74.2682 293.424 75.4766 290.455 75.4766C288.111 75.4766 286.132 74.6224 284.518 72.9141C282.976 71.2682 282.205 69.3307 282.205 67.1016C282.205 63.612 283.731 60.0495 286.783 56.4141C289.377 53.3307 292.028 51.7891 294.736 51.7891C295.195 51.7891 295.606 51.8047 295.971 51.8359C296.346 51.8672 296.674 51.9141 296.955 51.9766C297.413 51.5286 297.965 51.3047 298.611 51.3047C299.674 51.3047 300.33 51.9141 300.58 53.1328C300.757 54.0078 300.846 55.0286 300.846 56.1953C300.846 56.7161 300.695 57.1901 300.393 57.6172C299.997 58.1797 299.424 58.4609 298.674 58.4609ZM309.268 76.0234C307.34 76.0234 305.684 75.362 304.299 74.0391C302.778 72.5911 301.981 70.6589 301.908 68.2422C301.835 65.9401 302.465 63.888 303.799 62.0859C305.382 59.9609 307.585 58.8984 310.408 58.8984C312.492 58.8984 314.148 59.7318 315.377 61.3984C316.481 62.8984 317.033 64.7578 317.033 66.9766C317.033 69.3932 316.387 71.4557 315.096 73.1641C313.648 75.0703 311.705 76.0234 309.268 76.0234ZM310.205 63.0234C308.924 63.013 307.913 63.5964 307.174 64.7734C306.549 65.763 306.236 66.9193 306.236 68.2422C306.236 69.4922 306.59 70.4505 307.299 71.1172C307.861 71.6484 308.518 71.9141 309.268 71.9141C310.174 71.9141 310.96 71.6068 311.627 70.9922C312.387 70.2734 312.794 69.2995 312.846 68.0703C312.981 64.7161 312.101 63.0339 310.205 63.0234ZM323.721 61.2734C325.294 59.4505 326.783 58.5391 328.189 58.5391C329.794 58.5391 330.971 59.1484 331.721 60.3672C332.356 59.8047 333.059 59.3828 333.83 59.1016C334.601 58.8203 335.434 58.6797 336.33 58.6797C338.372 58.6797 339.757 59.6953 340.486 61.7266C340.632 62.1432 340.856 63.5547 341.158 65.9609C341.45 67.6484 341.825 70.4609 342.283 74.3984C342.325 74.9922 342.122 75.4818 341.674 75.8672C341.226 76.2526 340.7 76.4453 340.096 76.4453C338.898 76.4453 338.195 75.8516 337.986 74.6641C337.799 73.5911 337.606 72.0755 337.408 70.1172C337.2 67.9714 337.028 66.4505 336.893 65.5547C336.611 63.6901 336.252 62.7578 335.814 62.7578C335.575 62.7578 335.028 62.9974 334.174 63.4766C333.32 63.9557 332.695 64.3672 332.299 64.7109C332.299 65.8984 332.439 67.6068 332.721 69.8359C333.012 72.1172 333.158 73.8255 333.158 74.9609C333.158 75.5547 332.955 76.0495 332.549 76.4453C332.143 76.8411 331.627 77.0391 331.002 77.0391C330.377 77.0391 329.861 76.8411 329.455 76.4453C329.049 76.0495 328.846 75.5547 328.846 74.9609C328.846 73.7734 328.715 72.0286 328.455 69.7266C328.205 67.4141 328.08 65.6641 328.08 64.4766C328.08 63.8099 328.023 63.2786 327.908 62.8828C326.7 63.5807 325.486 64.7422 324.268 66.3672C324.215 66.4401 324.127 66.5495 324.002 66.6953C323.96 68.7995 323.939 70.4505 323.939 71.6484C323.939 71.9401 323.929 72.3359 323.908 72.8359C323.887 73.3255 323.877 73.6901 323.877 73.9297C323.877 74.4922 323.648 74.9349 323.189 75.2578C322.773 75.5599 322.257 75.7109 321.643 75.7109C320.757 75.7109 320.158 75.3255 319.846 74.5547C319.627 74.0339 319.518 73.2057 319.518 72.0703V66.2578C319.518 65.737 319.497 64.9766 319.455 63.9766C319.413 62.9661 319.393 62.2005 319.393 61.6797C319.393 60.7526 319.559 59.9141 319.893 59.1641C320.299 58.2266 320.872 57.7578 321.611 57.7578C322.195 57.7578 322.715 57.987 323.174 58.4453C323.632 58.8932 323.861 59.388 323.861 59.9297C323.861 59.7109 323.814 60.1589 323.721 61.2734ZM348.111 56.3203C347.445 56.3203 346.867 56.0964 346.377 55.6484C345.887 55.2005 345.643 54.6536 345.643 54.0078C345.643 53.362 345.887 52.8151 346.377 52.3672C346.867 51.9193 347.445 51.6953 348.111 51.6953C348.778 51.6953 349.351 51.9193 349.83 52.3672C350.32 52.8151 350.564 53.362 350.564 54.0078C350.564 54.6536 350.32 55.2005 349.83 55.6484C349.351 56.0964 348.778 56.3203 348.111 56.3203ZM349.439 67.7734C349.439 68.3672 349.455 69.3203 349.486 70.6328C349.528 71.9453 349.549 72.8984 349.549 73.4922C349.549 74.0964 349.346 74.5964 348.939 74.9922C348.533 75.3776 348.018 75.5703 347.393 75.5703C346.768 75.5703 346.252 75.3776 345.846 74.9922C345.439 74.5964 345.236 74.0964 345.236 73.4922C345.236 72.8984 345.215 71.9453 345.174 70.6328C345.143 69.3203 345.127 68.3672 345.127 67.7734C345.127 66.8464 345.179 65.6849 345.283 64.2891C345.387 62.8932 345.439 61.7318 345.439 60.8047C345.439 60.2005 345.643 59.7057 346.049 59.3203C346.455 58.9245 346.971 58.7266 347.596 58.7266C348.221 58.7266 348.736 58.9245 349.143 59.3203C349.549 59.7057 349.752 60.2005 349.752 60.8047C349.752 61.7318 349.7 62.8932 349.596 64.2891C349.492 65.6849 349.439 66.8464 349.439 67.7734ZM360.705 76.0859C358.413 76.0859 356.492 75.4349 354.939 74.1328C353.304 72.7578 352.486 70.9453 352.486 68.6953C352.486 66.6224 353.221 64.4818 354.689 62.2734C356.356 59.7526 358.294 58.4922 360.502 58.4922C361.585 58.4922 362.851 58.7839 364.299 59.3672C366.059 60.0859 366.939 60.9141 366.939 61.8516C366.939 62.362 366.762 62.8151 366.408 63.2109C366.033 63.638 365.549 63.8516 364.955 63.8516C364.507 63.8516 363.965 63.612 363.33 63.1328C362.705 62.6432 361.762 62.3984 360.502 62.3984C359.7 62.3984 358.83 63.1849 357.893 64.7578C356.997 66.2786 356.549 67.5911 356.549 68.6953C356.549 69.7891 356.945 70.6484 357.736 71.2734C358.486 71.8672 359.476 72.1641 360.705 72.1641C361.403 72.1641 362.257 71.8984 363.268 71.3672C364.278 70.8359 364.919 70.5703 365.189 70.5703C365.752 70.5703 366.231 70.7734 366.627 71.1797C367.033 71.5859 367.236 72.0495 367.236 72.5703C367.236 73.3828 366.351 74.1953 364.58 75.0078C362.997 75.7266 361.705 76.0859 360.705 76.0859Z" fill="white"/>
<defs>
<linearGradient id="paint0_linear_2007_87" x1="27.8865" y1="13.213" x2="86.8798" y2="72.2063" gradientUnits="userSpaceOnUse">
<stop stop-color="#B4AEFF"/>
<stop offset="1" stop-color="#434CF4"/>
</linearGradient>
<linearGradient id="paint1_linear_2007_87" x1="18.1459" y1="56.4984" x2="42.247" y2="80.5995" gradientUnits="userSpaceOnUse">
<stop stop-color="white"/>
<stop offset="1" stop-color="#B0BEC5"/>
</linearGradient>
<linearGradient id="paint2_linear_2007_87" x1="67.301" y1="56.4984" x2="91.4022" y2="80.5995" gradientUnits="userSpaceOnUse">
<stop stop-color="white"/>
<stop offset="1" stop-color="#B0BEC5"/>
</linearGradient>
</defs>
</svg>
