<svg width="49" height="48" viewBox="0 0 49 48" fill="none" xmlns="http://www.w3.org/2000/svg">
<rect width="48" height="48" transform="translate(0.857178)" fill="#FF0000"/>
<path fill-rule="evenodd" clip-rule="evenodd" d="M21.4088 28.4335V18.8129C24.8241 20.42 27.4692 21.9725 30.5977 23.6462C28.0174 25.0772 24.8241 26.6828 21.4088 28.4335ZM40.4423 14.0282C39.8532 13.252 38.8491 12.6478 37.7801 12.4478C34.638 11.8511 15.0358 11.8494 11.8954 12.4478C11.0382 12.6085 10.2748 12.9969 9.61907 13.6004C6.85608 16.1649 7.72187 29.9174 8.38786 32.1451C8.66791 33.1094 9.02995 33.8048 9.48589 34.2612C10.0733 34.8647 10.8776 35.2803 11.8015 35.4666C14.3886 36.0018 27.7169 36.301 37.7254 35.547C38.6476 35.3863 39.4638 34.9574 40.1076 34.3282C42.6623 31.774 42.4881 17.2492 40.4423 14.0282Z" fill="white"/>
</svg>
