<svg width="12" height="12" viewBox="0 0 12 12" fill="none" xmlns="http://www.w3.org/2000/svg">
<g clip-path="url(#clip0_76_1103)">
<path d="M11.7475 3.10234C11.6755 2.85034 11.5465 2.63134 11.3605 2.44534C11.1745 2.25934 10.9555 2.13033 10.7035 2.05834C10.3155 1.95434 9.41551 1.88234 8.00351 1.84233C7.29951 1.81834 6.63351 1.80634 6.00551 1.80634L4.99751 1.81834C4.20951 1.83034 3.52551 1.85034 2.94551 1.87833C2.13351 1.92234 1.58751 1.98234 1.30751 2.05834C1.05551 2.13033 0.836512 2.25934 0.650512 2.44534C0.464512 2.63134 0.335512 2.85034 0.263512 3.10234C0.0875117 4.06234 -0.000488281 5.02934 -0.000488281 6.00334C-0.000488281 6.97734 0.0875117 7.94234 0.263512 8.89834C0.335512 9.15034 0.464512 9.36934 0.650512 9.55534C0.836512 9.74134 1.05551 9.87034 1.30751 9.94234C1.69551 10.0463 2.59551 10.1183 4.00751 10.1583C4.71151 10.1823 5.37751 10.1943 6.00551 10.1943L7.01351 10.1823C7.80151 10.1703 8.48551 10.1483 9.06551 10.1163C9.87751 10.0723 10.4235 10.0143 10.7035 9.94234C10.9555 9.87034 11.1745 9.74134 11.3605 9.55534C11.5465 9.36934 11.6755 9.15034 11.7475 8.89834C11.9195 7.94234 12.0035 6.97834 11.9995 6.00634C12.0035 5.03034 11.9195 4.06234 11.7475 3.10234ZM4.80551 7.80034V4.20634L7.93751 6.00634L4.80551 7.80034Z" fill="white"/>
</g>
<defs>
<clipPath id="clip0_76_1103">
<rect width="12" height="12" fill="white" transform="matrix(1 0 0 -1 -0.000488281 12)"/>
</clipPath>
</defs>
</svg>
